<?xml version="1.0" encoding="UTF-8"?>
<svg xmlns="http://www.w3.org/2000/svg" xmlns:xlink="http://www.w3.org/1999/xlink" width="1920" height="1080" viewBox="0 0 1920 1080">
<defs>
<g>
<g id="glyph-0-0">
<path d="M 1.671875 -3.242188 L 1.671875 -3.140625 C 1.582031 -3.140625 1.507812 -3.128906 1.445312 -3.105469 C 1.382812 -3.082031 1.351562 -3.035156 1.351562 -2.964844 C 1.351562 -2.921875 1.414062 -2.796875 1.539062 -2.589844 C 1.605469 -2.480469 1.6875 -2.347656 1.789062 -2.191406 C 1.925781 -2.382812 2.03125 -2.53125 2.097656 -2.636719 C 2.214844 -2.8125 2.269531 -2.925781 2.269531 -2.976562 C 2.269531 -3.039062 2.246094 -3.078125 2.195312 -3.101562 C 2.148438 -3.121094 2.078125 -3.136719 1.988281 -3.140625 L 1.988281 -3.242188 L 3.125 -3.242188 L 3.125 -3.140625 C 3.003906 -3.132812 2.894531 -3.101562 2.789062 -3.046875 C 2.6875 -2.992188 2.601562 -2.917969 2.539062 -2.824219 L 1.9375 -1.953125 L 2.867188 -0.542969 C 2.988281 -0.359375 3.089844 -0.242188 3.171875 -0.1875 C 3.253906 -0.132812 3.351562 -0.101562 3.460938 -0.0976562 L 3.460938 0 L 2.003906 0 L 2.003906 -0.0976562 L 2.105469 -0.105469 C 2.160156 -0.109375 2.203125 -0.128906 2.242188 -0.15625 C 2.277344 -0.183594 2.296875 -0.21875 2.296875 -0.261719 C 2.296875 -0.304688 2.25 -0.40625 2.160156 -0.558594 C 2.117188 -0.632812 2.054688 -0.734375 1.972656 -0.863281 C 1.933594 -0.925781 1.871094 -1.015625 1.792969 -1.128906 C 1.714844 -1.242188 1.648438 -1.335938 1.59375 -1.417969 L 1.027344 -0.53125 C 0.957031 -0.425781 0.914062 -0.355469 0.898438 -0.320312 C 0.882812 -0.285156 0.875 -0.257812 0.875 -0.234375 C 0.875 -0.1875 0.894531 -0.160156 0.929688 -0.144531 C 0.964844 -0.128906 1.046875 -0.113281 1.167969 -0.0976562 L 1.167969 0 L 0.125 0 L 0.125 -0.0976562 C 0.25 -0.125 0.34375 -0.15625 0.40625 -0.199219 C 0.46875 -0.238281 0.546875 -0.332031 0.648438 -0.476562 L 1.46875 -1.671875 L 0.792969 -2.699219 C 0.65625 -2.902344 0.5625 -3.023438 0.511719 -3.0625 C 0.460938 -3.097656 0.347656 -3.125 0.171875 -3.140625 L 0.171875 -3.242188 Z "/>
</g>
<g id="glyph-0-1">
<rect x="0" y="0" width="0" height="0" mask="url(#mask-0)"/>
</g>
<g id="glyph-0-2">
<path d="M 1.789062 -4.882812 L 3.148438 -1.832031 L 2.667969 -1.832031 L 1.695312 -4.113281 L 0.714844 -1.832031 L 0.234375 -1.832031 L 1.59375 -4.882812 Z "/>
</g>
<g id="glyph-0-3">
<path d="M 1.710938 -3.332031 C 1.882812 -3.332031 2.039062 -3.296875 2.183594 -3.21875 C 2.277344 -3.171875 2.367188 -3.101562 2.453125 -3.015625 L 2.453125 -4.136719 C 2.453125 -4.28125 2.4375 -4.378906 2.40625 -4.433594 C 2.375 -4.488281 2.300781 -4.515625 2.179688 -4.515625 C 2.152344 -4.515625 2.125 -4.511719 2.105469 -4.511719 C 2.085938 -4.507812 2.039062 -4.503906 1.964844 -4.496094 L 1.964844 -4.613281 L 2.253906 -4.6875 C 2.359375 -4.714844 2.464844 -4.746094 2.570312 -4.773438 C 2.675781 -4.804688 2.769531 -4.835938 2.847656 -4.863281 C 2.886719 -4.875 2.949219 -4.898438 3.035156 -4.929688 L 3.058594 -4.921875 L 3.050781 -4.554688 C 3.046875 -4.417969 3.046875 -4.28125 3.042969 -4.136719 C 3.039062 -3.996094 3.039062 -3.855469 3.039062 -3.71875 L 3.03125 -0.835938 C 3.03125 -0.683594 3.050781 -0.574219 3.089844 -0.515625 C 3.128906 -0.453125 3.226562 -0.421875 3.390625 -0.421875 C 3.414062 -0.421875 3.441406 -0.421875 3.464844 -0.425781 C 3.492188 -0.425781 3.519531 -0.429688 3.542969 -0.433594 L 3.542969 -0.316406 C 3.53125 -0.3125 3.359375 -0.253906 3.03125 -0.140625 L 2.480469 0.0664062 L 2.453125 0.0351562 L 2.453125 -0.398438 C 2.324219 -0.253906 2.207031 -0.152344 2.113281 -0.0898438 C 1.941406 0.015625 1.742188 0.0664062 1.515625 0.0664062 C 1.117188 0.0664062 0.792969 -0.0859375 0.542969 -0.398438 C 0.296875 -0.707031 0.171875 -1.0625 0.171875 -1.46875 C 0.171875 -1.980469 0.320312 -2.417969 0.617188 -2.785156 C 0.914062 -3.148438 1.28125 -3.332031 1.710938 -3.332031 Z M 1.839844 -0.3125 C 2.023438 -0.3125 2.171875 -0.367188 2.285156 -0.476562 C 2.398438 -0.585938 2.453125 -0.6875 2.453125 -0.78125 L 2.453125 -2.296875 C 2.453125 -2.601562 2.371094 -2.816406 2.210938 -2.941406 C 2.046875 -3.066406 1.886719 -3.132812 1.730469 -3.132812 C 1.433594 -3.132812 1.203125 -3 1.039062 -2.738281 C 0.875 -2.476562 0.792969 -2.152344 0.792969 -1.769531 C 0.792969 -1.390625 0.882812 -1.054688 1.054688 -0.757812 C 1.230469 -0.460938 1.492188 -0.3125 1.839844 -0.3125 Z "/>
</g>
<g id="glyph-1-0">
<path d="M 5.0625 0.1875 C 4.445312 0.1875 3.898438 0.105469 3.417969 -0.0664062 C 3.171875 -0.15625 2.953125 -0.277344 2.761719 -0.421875 C 2.570312 -0.570312 2.410156 -0.75 2.273438 -0.96875 C 2.015625 -1.390625 1.886719 -1.839844 1.886719 -2.3125 C 1.886719 -2.53125 1.917969 -2.753906 1.980469 -2.972656 C 2.042969 -3.191406 2.128906 -3.394531 2.238281 -3.585938 C 2.347656 -3.777344 2.480469 -3.945312 2.632812 -4.09375 C 2.785156 -4.242188 2.949219 -4.359375 3.128906 -4.441406 C 3.363281 -4.539062 3.632812 -4.605469 3.9375 -4.644531 C 4.238281 -4.683594 4.601562 -4.703125 5.027344 -4.703125 L 5.027344 -4.472656 C 4.761719 -4.472656 4.523438 -4.460938 4.316406 -4.441406 C 4.105469 -4.421875 3.925781 -4.394531 3.777344 -4.355469 C 3.472656 -4.28125 3.214844 -4.152344 3.003906 -3.957031 C 2.800781 -3.769531 2.640625 -3.542969 2.519531 -3.277344 C 2.398438 -3.015625 2.335938 -2.722656 2.324219 -2.40625 L 4.992188 -2.40625 L 4.992188 -2.125 L 2.332031 -2.125 C 2.367188 -1.65625 2.519531 -1.253906 2.796875 -0.917969 C 3.066406 -0.585938 3.417969 -0.355469 3.851562 -0.230469 C 4.0625 -0.167969 4.269531 -0.121094 4.472656 -0.09375 C 4.671875 -0.0664062 4.871094 -0.0507812 5.0625 -0.0507812 Z "/>
</g>
<g id="glyph-1-1">
<rect x="0" y="0" width="0" height="0" mask="url(#mask-1)"/>
</g>
<g id="glyph-2-0">
<path d="M 3.351562 -1.351562 C 3.199219 -1.707031 3.054688 -1.941406 2.917969 -2.050781 C 2.78125 -2.167969 2.59375 -2.226562 2.351562 -2.226562 L 2.21875 -2.226562 C 2.371094 -2.117188 2.546875 -1.824219 2.75 -1.351562 L 3.175781 -0.351562 L 3.773438 -0.351562 Z M 2.984375 -2.4375 C 3.089844 -2.378906 3.199219 -2.269531 3.3125 -2.117188 C 3.425781 -1.960938 3.542969 -1.734375 3.667969 -1.4375 L 4.277344 0 L 2.960938 0 L 2.390625 -1.351562 C 2.242188 -1.703125 2.097656 -1.9375 1.960938 -2.050781 C 1.820312 -2.167969 1.632812 -2.226562 1.394531 -2.226562 L 1.332031 -2.226562 L 1.332031 0 L 0.128906 0 L 0.128906 -5.265625 L 2.164062 -5.265625 C 2.675781 -5.265625 3.054688 -5.140625 3.308594 -4.886719 C 3.558594 -4.636719 3.683594 -4.257812 3.683594 -3.75 C 3.683594 -3.261719 3.566406 -2.898438 3.332031 -2.667969 C 3.234375 -2.574219 3.121094 -2.496094 2.984375 -2.4375 Z M 1.332031 -4.914062 L 1.332031 -2.578125 L 2.304688 -2.578125 C 2.355469 -2.578125 2.402344 -2.582031 2.449219 -2.585938 L 2.449219 -4.90625 C 2.402344 -4.910156 2.355469 -4.914062 2.304688 -4.914062 Z M 2.761719 -4.832031 L 2.761719 -2.664062 C 2.890625 -2.714844 3 -2.789062 3.085938 -2.886719 C 3.265625 -3.085938 3.355469 -3.375 3.355469 -3.75 C 3.355469 -4.125 3.265625 -4.410156 3.089844 -4.609375 C 3.003906 -4.707031 2.894531 -4.78125 2.761719 -4.832031 Z M 0.429688 -4.914062 L 0.429688 -0.351562 L 1.035156 -0.351562 L 1.035156 -4.914062 Z "/>
</g>
</g>
<image id="source-15" x="0" y="0" width="0" height="0"/>
<mask id="mask-0">
<use xlink:href="#source-15"/>
</mask>
<image id="source-40" x="0" y="0" width="0" height="0"/>
<mask id="mask-1">
<use xlink:href="#source-40"/>
</mask>
</defs>
<g fill="rgb(96.862745%, 85.098039%, 43.529412%)" fill-opacity="1">
<use xlink:href="#glyph-0-0" x="30" y="27.65625"/>
<use xlink:href="#glyph-0-1" x="34" y="27.65625"/>
</g>
<g fill="rgb(96.862745%, 85.098039%, 43.529412%)" fill-opacity="1">
<use xlink:href="#glyph-1-0" x="36" y="27.65625"/>
<use xlink:href="#glyph-1-1" x="43" y="27.65625"/>
</g>
<g fill="rgb(96.862745%, 85.098039%, 43.529412%)" fill-opacity="1">
<use xlink:href="#glyph-2-0" x="45" y="27.65625"/>
</g>
<g fill="rgb(96.862745%, 85.098039%, 43.529412%)" fill-opacity="1">
<use xlink:href="#glyph-0-2" x="49" y="27.65625"/>
<use xlink:href="#glyph-0-3" x="52" y="27.65625"/>
</g>
</svg>
