<?xml version="1.0" encoding="UTF-8"?>
<svg xmlns="http://www.w3.org/2000/svg" xmlns:xlink="http://www.w3.org/1999/xlink" width="1920" height="1080" viewBox="0 0 1920 1080">
<defs>
<g>
<g id="glyph-0-0">
<path d="M 0.0625 -0.101562 C 0.265625 -0.121094 0.398438 -0.160156 0.460938 -0.210938 C 0.519531 -0.261719 0.550781 -0.390625 0.550781 -0.601562 L 0.550781 -3.074219 C 0.550781 -3.269531 0.519531 -3.398438 0.460938 -3.460938 C 0.402344 -3.519531 0.269531 -3.558594 0.0625 -3.574219 L 0.0625 -3.675781 L 3.015625 -3.675781 L 3.03125 -2.878906 L 2.890625 -2.878906 C 2.84375 -3.125 2.773438 -3.285156 2.679688 -3.355469 C 2.585938 -3.429688 2.375 -3.464844 2.050781 -3.464844 L 1.296875 -3.464844 C 1.214844 -3.464844 1.164062 -3.449219 1.144531 -3.425781 C 1.125 -3.398438 1.117188 -3.347656 1.117188 -3.277344 L 1.117188 -2.039062 L 1.972656 -2.039062 C 2.210938 -2.039062 2.359375 -2.074219 2.425781 -2.144531 C 2.492188 -2.214844 2.542969 -2.355469 2.582031 -2.570312 L 2.710938 -2.570312 L 2.710938 -1.285156 L 2.582031 -1.285156 C 2.539062 -1.5 2.488281 -1.644531 2.421875 -1.714844 C 2.355469 -1.785156 2.207031 -1.816406 1.972656 -1.816406 L 1.117188 -1.816406 L 1.117188 -0.441406 C 1.117188 -0.332031 1.152344 -0.265625 1.222656 -0.246094 C 1.292969 -0.226562 1.5 -0.21875 1.847656 -0.21875 C 2.222656 -0.21875 2.5 -0.257812 2.679688 -0.339844 C 2.859375 -0.421875 3.019531 -0.621094 3.164062 -0.9375 L 3.316406 -0.9375 L 3.066406 0 L 0.0625 0 Z "/>
</g>
<g id="glyph-0-1">
<path d="M 0.0234375 -0.0898438 C 0.191406 -0.105469 0.300781 -0.132812 0.355469 -0.175781 C 0.410156 -0.222656 0.4375 -0.316406 0.4375 -0.460938 L 0.4375 -1.683594 C 0.4375 -1.863281 0.421875 -1.992188 0.386719 -2.070312 C 0.351562 -2.144531 0.292969 -2.183594 0.203125 -2.183594 C 0.183594 -2.183594 0.160156 -2.179688 0.132812 -2.175781 C 0.101562 -2.171875 0.0703125 -2.167969 0.0390625 -2.160156 L 0.0390625 -2.25 C 0.140625 -2.285156 0.246094 -2.320312 0.355469 -2.359375 C 0.464844 -2.398438 0.539062 -2.425781 0.582031 -2.441406 C 0.671875 -2.476562 0.765625 -2.515625 0.859375 -2.558594 C 0.871094 -2.558594 0.878906 -2.554688 0.882812 -2.542969 C 0.886719 -2.535156 0.886719 -2.515625 0.886719 -2.488281 L 0.886719 -2.042969 C 1.003906 -2.203125 1.113281 -2.328125 1.222656 -2.417969 C 1.328125 -2.507812 1.441406 -2.554688 1.558594 -2.554688 C 1.648438 -2.554688 1.722656 -2.527344 1.78125 -2.472656 C 1.839844 -2.417969 1.867188 -2.347656 1.867188 -2.265625 C 1.867188 -2.191406 1.847656 -2.128906 1.800781 -2.078125 C 1.757812 -2.027344 1.703125 -2.003906 1.636719 -2.003906 C 1.566406 -2.003906 1.496094 -2.035156 1.429688 -2.097656 C 1.359375 -2.160156 1.304688 -2.191406 1.265625 -2.191406 C 1.203125 -2.191406 1.125 -2.140625 1.03125 -2.039062 C 0.9375 -1.9375 0.890625 -1.832031 0.890625 -1.722656 L 0.890625 -0.5 C 0.890625 -0.34375 0.929688 -0.234375 1 -0.175781 C 1.074219 -0.113281 1.195312 -0.0859375 1.363281 -0.0898438 L 1.363281 0 L 0.0234375 0 Z "/>
</g>
<g id="glyph-0-2">
<path d="M 0.140625 -1.257812 C 0.140625 -1.617188 0.253906 -1.921875 0.484375 -2.171875 C 0.714844 -2.421875 1.007812 -2.542969 1.367188 -2.542969 C 1.726562 -2.542969 2.023438 -2.425781 2.257812 -2.191406 C 2.492188 -1.957031 2.609375 -1.644531 2.609375 -1.253906 C 2.609375 -0.894531 2.496094 -0.582031 2.269531 -0.316406 C 2.039062 -0.0507812 1.746094 0.0859375 1.382812 0.0859375 C 1.035156 0.0859375 0.742188 -0.0429688 0.5 -0.296875 C 0.261719 -0.554688 0.140625 -0.875 0.140625 -1.257812 Z M 1.292969 -2.382812 C 1.148438 -2.382812 1.023438 -2.335938 0.917969 -2.242188 C 0.738281 -2.078125 0.648438 -1.792969 0.648438 -1.390625 C 0.648438 -1.066406 0.722656 -0.765625 0.867188 -0.488281 C 1.011719 -0.210938 1.214844 -0.0703125 1.472656 -0.0703125 C 1.675781 -0.0703125 1.832031 -0.164062 1.941406 -0.351562 C 2.050781 -0.535156 2.105469 -0.78125 2.105469 -1.082031 C 2.105469 -1.394531 2.035156 -1.691406 1.894531 -1.964844 C 1.757812 -2.242188 1.554688 -2.382812 1.292969 -2.382812 Z "/>
</g>
<g id="glyph-0-3">
<path d="M 1.015625 0.0585938 C 0.9375 0.0585938 0.867188 0.03125 0.808594 -0.0234375 C 0.75 -0.078125 0.71875 -0.144531 0.71875 -0.230469 C 0.71875 -0.3125 0.746094 -0.382812 0.804688 -0.441406 C 0.863281 -0.5 0.933594 -0.53125 1.019531 -0.53125 C 1.105469 -0.53125 1.179688 -0.5 1.238281 -0.441406 C 1.296875 -0.378906 1.324219 -0.308594 1.324219 -0.230469 C 1.324219 -0.152344 1.292969 -0.0820312 1.234375 -0.0273438 C 1.175781 0.03125 1.101562 0.0585938 1.015625 0.0585938 Z M 1.308594 -3.3125 C 1.308594 -3.28125 1.308594 -3.246094 1.308594 -3.214844 C 1.304688 -3.183594 1.300781 -3.148438 1.296875 -3.101562 L 1.175781 -2.074219 L 1.046875 -0.976562 L 0.976562 -0.976562 L 0.925781 -1.574219 C 0.910156 -1.742188 0.871094 -2.066406 0.804688 -2.546875 C 0.746094 -2.964844 0.71875 -3.21875 0.71875 -3.304688 C 0.71875 -3.417969 0.742188 -3.519531 0.785156 -3.613281 C 0.828125 -3.707031 0.90625 -3.753906 1.027344 -3.753906 C 1.148438 -3.753906 1.230469 -3.691406 1.273438 -3.5625 C 1.296875 -3.496094 1.308594 -3.410156 1.308594 -3.3125 Z "/>
</g>
</g>
</defs>
<g fill="rgb(98.823529%, 38.431373%, 33.333333%)" fill-opacity="1">
<use xlink:href="#glyph-0-0" x="30" y="24.166992"/>
<use xlink:href="#glyph-0-1" x="33" y="24.166992"/>
<use xlink:href="#glyph-0-1" x="35" y="24.166992"/>
<use xlink:href="#glyph-0-2" x="37" y="24.166992"/>
<use xlink:href="#glyph-0-1" x="40" y="24.166992"/>
<use xlink:href="#glyph-0-3" x="42" y="24.166992"/>
</g>
</svg>
