<?xml version="1.0" encoding="UTF-8"?>
<svg xmlns="http://www.w3.org/2000/svg" xmlns:xlink="http://www.w3.org/1999/xlink" width="1920" height="1080" viewBox="0 0 1920 1080">
<defs>
<g>
<g id="glyph-0-0">
<path d="M 0.574219 -1.789062 C 0.722656 -1.390625 0.898438 -1.070312 1.101562 -0.832031 C 1.457031 -0.417969 1.894531 -0.210938 2.417969 -0.210938 C 2.703125 -0.210938 2.945312 -0.300781 3.152344 -0.480469 C 3.359375 -0.660156 3.464844 -0.910156 3.464844 -1.234375 C 3.464844 -1.523438 3.359375 -1.773438 3.152344 -1.988281 C 3.015625 -2.125 2.730469 -2.328125 2.292969 -2.601562 L 1.53125 -3.074219 C 1.304688 -3.21875 1.121094 -3.363281 0.984375 -3.511719 C 0.734375 -3.792969 0.609375 -4.101562 0.609375 -4.441406 C 0.609375 -4.890625 0.757812 -5.261719 1.054688 -5.558594 C 1.351562 -5.859375 1.746094 -6.007812 2.238281 -6.007812 C 2.441406 -6.007812 2.6875 -5.957031 2.972656 -5.859375 C 3.257812 -5.757812 3.417969 -5.707031 3.460938 -5.707031 C 3.570312 -5.707031 3.644531 -5.734375 3.6875 -5.785156 C 3.730469 -5.835938 3.761719 -5.910156 3.785156 -6.007812 L 3.96875 -6.007812 L 4.164062 -4.113281 L 3.949219 -4.113281 C 3.804688 -4.683594 3.574219 -5.082031 3.253906 -5.308594 C 2.933594 -5.535156 2.617188 -5.648438 2.304688 -5.648438 C 2.0625 -5.648438 1.851562 -5.574219 1.667969 -5.433594 C 1.488281 -5.289062 1.398438 -5.089844 1.398438 -4.835938 C 1.398438 -4.605469 1.46875 -4.410156 1.605469 -4.25 C 1.746094 -4.085938 1.960938 -3.914062 2.253906 -3.734375 L 3.035156 -3.25 C 3.523438 -2.949219 3.867188 -2.675781 4.066406 -2.421875 C 4.265625 -2.167969 4.363281 -1.867188 4.363281 -1.519531 C 4.363281 -1.054688 4.1875 -0.664062 3.835938 -0.351562 C 3.484375 -0.0390625 3.035156 0.117188 2.488281 0.117188 C 2.210938 0.117188 1.925781 0.0664062 1.625 -0.0390625 C 1.324219 -0.144531 1.15625 -0.195312 1.109375 -0.195312 C 1.007812 -0.195312 0.9375 -0.164062 0.902344 -0.101562 C 0.863281 -0.0351562 0.839844 0.03125 0.828125 0.105469 L 0.632812 0.105469 L 0.367188 -1.789062 Z "/>
</g>
<g id="glyph-0-1">
<path d="M 2.210938 -4.09375 C 2.570312 -4.09375 2.882812 -4 3.144531 -3.8125 C 3.40625 -3.625 3.539062 -3.421875 3.539062 -3.199219 C 3.539062 -3.105469 3.503906 -3.015625 3.4375 -2.933594 C 3.371094 -2.851562 3.269531 -2.808594 3.128906 -2.808594 C 3.027344 -2.808594 2.9375 -2.84375 2.863281 -2.914062 C 2.785156 -2.984375 2.730469 -3.082031 2.695312 -3.214844 L 2.644531 -3.425781 C 2.605469 -3.578125 2.539062 -3.6875 2.449219 -3.75 C 2.351562 -3.8125 2.226562 -3.839844 2.070312 -3.839844 C 1.742188 -3.839844 1.460938 -3.699219 1.234375 -3.410156 C 1.007812 -3.121094 0.894531 -2.738281 0.894531 -2.261719 C 0.894531 -1.824219 1.019531 -1.433594 1.269531 -1.085938 C 1.519531 -0.738281 1.859375 -0.5625 2.28125 -0.5625 C 2.582031 -0.5625 2.851562 -0.664062 3.085938 -0.859375 C 3.21875 -0.972656 3.371094 -1.152344 3.539062 -1.398438 L 3.660156 -1.324219 C 3.496094 -0.976562 3.320312 -0.703125 3.136719 -0.5 C 2.789062 -0.113281 2.382812 0.0820312 1.921875 0.0820312 C 1.472656 0.0820312 1.070312 -0.09375 0.726562 -0.453125 C 0.378906 -0.808594 0.203125 -1.289062 0.203125 -1.902344 C 0.203125 -2.5 0.394531 -3.015625 0.773438 -3.445312 C 1.152344 -3.878906 1.628906 -4.09375 2.210938 -4.09375 Z "/>
</g>
<g id="glyph-0-2">
<path d="M 0.226562 -2.015625 C 0.226562 -2.589844 0.410156 -3.078125 0.773438 -3.476562 C 1.140625 -3.875 1.613281 -4.070312 2.1875 -4.070312 C 2.761719 -4.070312 3.234375 -3.882812 3.613281 -3.507812 C 3.988281 -3.132812 4.175781 -2.628906 4.175781 -2.003906 C 4.175781 -1.429688 3.992188 -0.929688 3.628906 -0.503906 C 3.265625 -0.078125 2.792969 0.132812 2.214844 0.132812 C 1.660156 0.132812 1.1875 -0.0703125 0.804688 -0.476562 C 0.417969 -0.886719 0.226562 -1.398438 0.226562 -2.015625 Z M 2.066406 -3.8125 C 1.835938 -3.8125 1.640625 -3.734375 1.472656 -3.585938 C 1.183594 -3.320312 1.039062 -2.867188 1.039062 -2.222656 C 1.039062 -1.707031 1.152344 -1.226562 1.386719 -0.78125 C 1.621094 -0.335938 1.941406 -0.113281 2.355469 -0.113281 C 2.679688 -0.113281 2.929688 -0.261719 3.105469 -0.558594 C 3.28125 -0.859375 3.367188 -1.25 3.367188 -1.730469 C 3.367188 -2.230469 3.257812 -2.703125 3.035156 -3.148438 C 2.8125 -3.589844 2.488281 -3.8125 2.066406 -3.8125 Z "/>
</g>
<g id="glyph-0-3">
<path d="M 0.0390625 -0.144531 C 0.304688 -0.167969 0.480469 -0.214844 0.570312 -0.285156 C 0.65625 -0.355469 0.699219 -0.507812 0.699219 -0.738281 L 0.699219 -2.695312 C 0.699219 -2.980469 0.671875 -3.1875 0.617188 -3.308594 C 0.566406 -3.433594 0.46875 -3.496094 0.324219 -3.496094 C 0.296875 -3.496094 0.257812 -3.492188 0.210938 -3.484375 C 0.164062 -3.476562 0.113281 -3.464844 0.0625 -3.457031 L 0.0625 -3.597656 C 0.226562 -3.65625 0.394531 -3.714844 0.570312 -3.777344 C 0.742188 -3.835938 0.863281 -3.878906 0.929688 -3.90625 C 1.074219 -3.960938 1.222656 -4.023438 1.375 -4.09375 C 1.394531 -4.09375 1.410156 -4.085938 1.414062 -4.070312 C 1.417969 -4.058594 1.417969 -4.027344 1.417969 -3.980469 L 1.417969 -3.269531 C 1.605469 -3.527344 1.785156 -3.726562 1.957031 -3.871094 C 2.128906 -4.015625 2.304688 -4.089844 2.492188 -4.089844 C 2.640625 -4.089844 2.757812 -4.042969 2.851562 -3.957031 C 2.945312 -3.867188 2.992188 -3.757812 2.992188 -3.625 C 2.992188 -3.507812 2.957031 -3.40625 2.882812 -3.324219 C 2.8125 -3.242188 2.722656 -3.203125 2.617188 -3.203125 C 2.507812 -3.203125 2.398438 -3.253906 2.285156 -3.355469 C 2.175781 -3.457031 2.085938 -3.507812 2.023438 -3.507812 C 1.921875 -3.507812 1.796875 -3.425781 1.648438 -3.261719 C 1.5 -3.097656 1.429688 -2.929688 1.429688 -2.757812 L 1.429688 -0.796875 C 1.429688 -0.550781 1.484375 -0.375 1.601562 -0.28125 C 1.71875 -0.183594 1.910156 -0.136719 2.179688 -0.144531 L 2.179688 0 L 0.0390625 0 Z "/>
</g>
<g id="glyph-0-4">
<path d="M 2.035156 -4.070312 C 2.445312 -4.070312 2.800781 -3.929688 3.109375 -3.648438 C 3.414062 -3.367188 3.566406 -2.964844 3.566406 -2.449219 L 0.8125 -2.449219 C 0.839844 -1.777344 0.992188 -1.289062 1.265625 -0.980469 C 1.542969 -0.675781 1.867188 -0.519531 2.242188 -0.519531 C 2.546875 -0.519531 2.804688 -0.601562 3.011719 -0.757812 C 3.21875 -0.917969 3.414062 -1.144531 3.589844 -1.4375 L 3.742188 -1.382812 C 3.625 -1.015625 3.402344 -0.675781 3.074219 -0.363281 C 2.75 -0.0507812 2.351562 0.105469 1.878906 0.105469 C 1.335938 0.105469 0.914062 -0.101562 0.617188 -0.511719 C 0.320312 -0.921875 0.171875 -1.394531 0.171875 -1.929688 C 0.171875 -2.511719 0.347656 -3.015625 0.691406 -3.4375 C 1.035156 -3.859375 1.484375 -4.070312 2.035156 -4.070312 Z M 1.785156 -3.753906 C 1.453125 -3.753906 1.203125 -3.609375 1.027344 -3.316406 C 0.9375 -3.160156 0.871094 -2.964844 0.828125 -2.726562 L 2.660156 -2.726562 C 2.628906 -3.015625 2.574219 -3.230469 2.496094 -3.371094 C 2.355469 -3.625 2.117188 -3.753906 1.785156 -3.753906 Z "/>
</g>
<g id="glyph-0-5">
<path d="M 0.460938 -1.367188 L 0.601562 -1.367188 C 0.667969 -1.039062 0.757812 -0.785156 0.871094 -0.609375 C 1.074219 -0.285156 1.371094 -0.121094 1.761719 -0.121094 C 1.980469 -0.121094 2.152344 -0.179688 2.277344 -0.300781 C 2.402344 -0.421875 2.464844 -0.578125 2.464844 -0.769531 C 2.464844 -0.890625 2.429688 -1.007812 2.355469 -1.121094 C 2.285156 -1.234375 2.15625 -1.34375 1.976562 -1.449219 L 1.488281 -1.726562 C 1.132812 -1.917969 0.871094 -2.109375 0.703125 -2.304688 C 0.535156 -2.5 0.453125 -2.726562 0.453125 -2.992188 C 0.453125 -3.316406 0.566406 -3.582031 0.796875 -3.789062 C 1.03125 -3.996094 1.320312 -4.101562 1.671875 -4.101562 C 1.824219 -4.101562 1.992188 -4.074219 2.175781 -4.015625 C 2.359375 -3.957031 2.464844 -3.929688 2.488281 -3.929688 C 2.539062 -3.929688 2.578125 -3.933594 2.601562 -3.949219 C 2.625 -3.964844 2.644531 -3.988281 2.660156 -4.019531 L 2.765625 -4.019531 L 2.796875 -2.808594 L 2.660156 -2.808594 C 2.601562 -3.089844 2.523438 -3.308594 2.425781 -3.464844 C 2.246094 -3.753906 1.988281 -3.898438 1.648438 -3.898438 C 1.445312 -3.898438 1.289062 -3.835938 1.171875 -3.710938 C 1.054688 -3.585938 1 -3.441406 1 -3.273438 C 1 -3.007812 1.199219 -2.769531 1.597656 -2.5625 L 2.171875 -2.253906 C 2.789062 -1.917969 3.09375 -1.527344 3.09375 -1.082031 C 3.09375 -0.738281 2.96875 -0.460938 2.710938 -0.242188 C 2.453125 -0.0273438 2.121094 0.0820312 1.707031 0.0820312 C 1.53125 0.0820312 1.335938 0.0546875 1.117188 -0.00390625 C 0.894531 -0.0625 0.765625 -0.0898438 0.726562 -0.0898438 C 0.691406 -0.0898438 0.660156 -0.078125 0.632812 -0.0546875 C 0.605469 -0.03125 0.585938 0 0.574219 0.0351562 L 0.460938 0.0351562 Z "/>
</g>
<g id="glyph-0-6">
<rect x="0" y="0" width="0" height="0" mask="url(#mask-0)"/>
</g>
<g id="glyph-0-7">
<path d="M 0.40625 -2.230469 C 0.40625 -3.238281 0.707031 -4.121094 1.3125 -4.882812 C 1.683594 -5.347656 2.117188 -5.722656 2.621094 -6.007812 L 2.703125 -5.863281 C 2.238281 -5.492188 1.90625 -5.132812 1.707031 -4.785156 C 1.355469 -4.171875 1.179688 -3.359375 1.179688 -2.34375 C 1.179688 -1.589844 1.246094 -0.972656 1.378906 -0.480469 C 1.613281 0.375 2.054688 1.015625 2.703125 1.441406 L 2.589844 1.585938 C 2.234375 1.414062 1.851562 1.078125 1.4375 0.582031 C 0.75 -0.242188 0.40625 -1.179688 0.40625 -2.230469 Z "/>
</g>
<g id="glyph-0-8">
<path d="M 1.273438 -2.9375 C 1.273438 -2.003906 1.457031 -1.3125 1.824219 -0.867188 C 2.191406 -0.417969 2.640625 -0.195312 3.175781 -0.195312 C 3.699219 -0.195312 4.148438 -0.414062 4.519531 -0.847656 C 4.890625 -1.285156 5.078125 -1.980469 5.078125 -2.9375 C 5.078125 -3.90625 4.890625 -4.609375 4.515625 -5.039062 C 4.136719 -5.46875 3.691406 -5.6875 3.175781 -5.6875 C 2.644531 -5.6875 2.195312 -5.460938 1.824219 -5.015625 C 1.457031 -4.570312 1.273438 -3.875 1.273438 -2.9375 Z M 0.265625 -2.9375 C 0.265625 -3.886719 0.5625 -4.648438 1.160156 -5.222656 C 1.707031 -5.746094 2.378906 -6.007812 3.175781 -6.007812 C 3.964844 -6.007812 4.632812 -5.75 5.183594 -5.230469 C 5.789062 -4.660156 6.089844 -3.894531 6.089844 -2.9375 C 6.089844 -2.179688 5.898438 -1.539062 5.511719 -1.015625 C 5.09375 -0.453125 4.503906 -0.09375 3.742188 0.0507812 C 4.101562 0.570312 4.535156 0.9375 5.042969 1.15625 C 5.328125 1.277344 5.714844 1.367188 6.203125 1.421875 L 6.203125 1.585938 L 5.839844 1.585938 C 5.359375 1.585938 4.933594 1.546875 4.558594 1.46875 C 4.1875 1.390625 3.851562 1.269531 3.546875 1.109375 C 3.242188 0.953125 2.960938 0.738281 2.703125 0.460938 C 2.445312 0.183594 2.300781 0.0351562 2.269531 0.0234375 L 2.15625 -0.03125 C 1.664062 -0.257812 1.285156 -0.519531 1.015625 -0.8125 C 0.515625 -1.351562 0.265625 -2.0625 0.265625 -2.9375 Z "/>
</g>
<g id="glyph-0-9">
<path d="M 0.160156 -0.160156 C 0.523438 -0.1875 0.746094 -0.253906 0.832031 -0.355469 C 0.917969 -0.453125 0.964844 -0.691406 0.964844 -1.066406 L 0.964844 -4.917969 C 0.964844 -5.238281 0.914062 -5.445312 0.816406 -5.539062 C 0.71875 -5.632812 0.503906 -5.695312 0.160156 -5.714844 L 0.160156 -5.882812 L 2.695312 -5.882812 L 2.695312 -5.714844 C 2.347656 -5.699219 2.125 -5.640625 2.023438 -5.542969 C 1.921875 -5.445312 1.871094 -5.234375 1.871094 -4.917969 L 1.871094 -3.09375 C 2.417969 -3.558594 2.863281 -3.957031 3.210938 -4.285156 C 3.832031 -4.878906 4.144531 -5.257812 4.144531 -5.425781 C 4.144531 -5.542969 4.09375 -5.621094 3.988281 -5.660156 C 3.882812 -5.699219 3.730469 -5.714844 3.539062 -5.714844 L 3.539062 -5.882812 L 5.863281 -5.882812 L 5.863281 -5.738281 C 5.582031 -5.710938 5.355469 -5.652344 5.195312 -5.570312 C 5.03125 -5.484375 4.804688 -5.300781 4.515625 -5.019531 L 2.824219 -3.363281 L 4.894531 -1.128906 C 5.28125 -0.714844 5.542969 -0.457031 5.683594 -0.355469 C 5.820312 -0.25 6.023438 -0.183594 6.292969 -0.152344 L 6.292969 0 L 3.578125 0 L 3.578125 -0.160156 C 3.824219 -0.167969 3.988281 -0.1875 4.074219 -0.21875 C 4.164062 -0.25 4.207031 -0.308594 4.207031 -0.398438 C 4.207031 -0.449219 4.179688 -0.523438 4.121094 -0.625 C 4.066406 -0.726562 3.976562 -0.84375 3.855469 -0.976562 L 2.171875 -2.824219 L 1.871094 -2.570312 L 1.871094 -0.964844 C 1.871094 -0.632812 1.921875 -0.425781 2.019531 -0.335938 C 2.121094 -0.246094 2.339844 -0.191406 2.675781 -0.160156 L 2.675781 0 L 0.160156 0 Z "/>
</g>
<g id="glyph-0-10">
<path d="M 2.53125 -2.1875 C 2.53125 -1.757812 2.472656 -1.347656 2.359375 -0.964844 C 2.246094 -0.578125 2.082031 -0.214844 1.867188 0.125 C 1.636719 0.488281 1.332031 0.832031 0.949219 1.144531 C 0.699219 1.355469 0.488281 1.5 0.316406 1.585938 L 0.234375 1.441406 C 0.679688 1.101562 1.003906 0.757812 1.210938 0.402344 C 1.574219 -0.222656 1.757812 -1.046875 1.757812 -2.074219 C 1.757812 -2.90625 1.675781 -3.582031 1.507812 -4.109375 C 1.273438 -4.855469 0.847656 -5.4375 0.234375 -5.863281 L 0.347656 -6.007812 C 0.804688 -5.753906 1.230469 -5.367188 1.625 -4.851562 C 2.230469 -4.058594 2.53125 -3.171875 2.53125 -2.1875 Z "/>
</g>
<g id="glyph-1-0">
<path d="M 3.089844 -5.167969 L 2.996094 -5.167969 C 2.976562 -5.316406 2.949219 -5.421875 2.917969 -5.480469 C 2.8125 -5.679688 2.625 -5.777344 2.347656 -5.777344 L 1.847656 -5.777344 L 1.847656 -3.078125 C 1.847656 -2.859375 1.871094 -2.726562 1.917969 -2.675781 C 1.984375 -2.597656 2.085938 -2.5625 2.226562 -2.5625 L 2.347656 -2.5625 L 2.347656 -2.464844 L 0.851562 -2.464844 L 0.851562 -2.5625 L 0.976562 -2.5625 C 1.125 -2.5625 1.230469 -2.605469 1.292969 -2.699219 C 1.332031 -2.753906 1.351562 -2.878906 1.351562 -3.078125 L 1.351562 -5.777344 L 0.925781 -5.777344 C 0.761719 -5.777344 0.644531 -5.765625 0.574219 -5.738281 C 0.363281 -5.664062 0.25 -5.472656 0.226562 -5.167969 L 0.128906 -5.167969 L 0.167969 -6 L 3.050781 -6 Z "/>
</g>
</g>
<image id="source-30" x="0" y="0" width="0" height="0"/>
<mask id="mask-0">
<use xlink:href="#source-30"/>
</mask>
</defs>
<g fill="rgb(100%, 100%, 100%)" fill-opacity="1">
<use xlink:href="#glyph-0-0" x="30" y="27.921875"/>
<use xlink:href="#glyph-0-1" x="35" y="27.921875"/>
<use xlink:href="#glyph-0-2" x="39" y="27.921875"/>
<use xlink:href="#glyph-0-3" x="43" y="27.921875"/>
<use xlink:href="#glyph-0-4" x="46" y="27.921875"/>
<use xlink:href="#glyph-0-5" x="50" y="27.921875"/>
<use xlink:href="#glyph-0-6" x="53" y="27.921875"/>
<use xlink:href="#glyph-0-7" x="55" y="27.921875"/>
<use xlink:href="#glyph-0-8" x="58" y="27.921875"/>
<use xlink:href="#glyph-0-9" x="64" y="27.921875"/>
</g>
<g fill="rgb(100%, 100%, 100%)" fill-opacity="1">
<use xlink:href="#glyph-1-0" x="70" y="27.921875"/>
</g>
<g fill="rgb(100%, 100%, 100%)" fill-opacity="1">
<use xlink:href="#glyph-0-10" x="73" y="27.921875"/>
</g>
</svg>
