<?xml version="1.0" encoding="UTF-8"?>
<svg xmlns="http://www.w3.org/2000/svg" xmlns:xlink="http://www.w3.org/1999/xlink" width="1920" height="1080" viewBox="0 0 1920 1080">
<defs>
<g>
<g id="glyph-0-0">
<path d="M 0.148438 -0.0546875 C 0.746094 -0.675781 1.148438 -1.128906 1.363281 -1.417969 C 1.574219 -1.707031 1.683594 -1.992188 1.683594 -2.265625 C 1.683594 -2.507812 1.617188 -2.691406 1.488281 -2.816406 C 1.355469 -2.941406 1.203125 -3.003906 1.019531 -3.003906 C 0.796875 -3.003906 0.617188 -2.925781 0.476562 -2.761719 C 0.402344 -2.671875 0.328125 -2.535156 0.257812 -2.347656 L 0.152344 -2.371094 C 0.234375 -2.746094 0.375 -3.003906 0.566406 -3.152344 C 0.761719 -3.296875 0.972656 -3.367188 1.195312 -3.367188 C 1.46875 -3.367188 1.691406 -3.28125 1.863281 -3.109375 C 2.03125 -2.9375 2.117188 -2.722656 2.117188 -2.472656 C 2.117188 -2.207031 2.023438 -1.949219 1.839844 -1.703125 C 1.65625 -1.453125 1.257812 -1.015625 0.640625 -0.382812 L 1.761719 -0.382812 C 1.917969 -0.382812 2.027344 -0.398438 2.09375 -0.4375 C 2.15625 -0.476562 2.226562 -0.566406 2.308594 -0.710938 L 2.371094 -0.679688 L 2.101562 0 L 0.148438 0 Z "/>
</g>
<g id="glyph-0-1">
<path d="M 1.457031 -2.851562 L 0.257812 -1.15625 L 1.457031 -1.15625 Z M 1.617188 -3.355469 L 1.851562 -3.355469 L 1.851562 -1.15625 L 2.359375 -1.15625 L 2.359375 -0.832031 L 1.851562 -0.832031 L 1.851562 0 L 1.460938 0 L 1.460938 -0.832031 L 0.0546875 -0.832031 L 0.0546875 -1.15625 Z "/>
</g>
<g id="glyph-0-2">
<path d="M 1.15625 -2.242188 L 1.15625 -2.175781 C 1.09375 -2.171875 1.042969 -2.164062 1 -2.148438 C 0.957031 -2.132812 0.933594 -2.101562 0.933594 -2.054688 C 0.933594 -2.023438 0.976562 -1.933594 1.0625 -1.792969 C 1.109375 -1.71875 1.167969 -1.625 1.238281 -1.515625 C 1.335938 -1.648438 1.40625 -1.75 1.453125 -1.828125 C 1.53125 -1.945312 1.570312 -2.023438 1.570312 -2.0625 C 1.570312 -2.101562 1.554688 -2.132812 1.519531 -2.144531 C 1.484375 -2.160156 1.4375 -2.171875 1.375 -2.175781 L 1.375 -2.242188 L 2.164062 -2.242188 L 2.164062 -2.175781 C 2.082031 -2.167969 2.003906 -2.144531 1.929688 -2.109375 C 1.859375 -2.070312 1.800781 -2.019531 1.757812 -1.957031 L 1.339844 -1.351562 L 1.984375 -0.375 C 2.066406 -0.25 2.136719 -0.167969 2.195312 -0.128906 C 2.253906 -0.09375 2.320312 -0.0703125 2.394531 -0.0703125 L 2.394531 0 L 1.386719 0 L 1.386719 -0.0703125 L 1.457031 -0.0742188 C 1.496094 -0.078125 1.527344 -0.0859375 1.550781 -0.109375 C 1.578125 -0.128906 1.589844 -0.152344 1.589844 -0.179688 C 1.589844 -0.210938 1.558594 -0.28125 1.496094 -0.386719 C 1.46875 -0.4375 1.421875 -0.507812 1.363281 -0.597656 C 1.335938 -0.640625 1.296875 -0.703125 1.242188 -0.78125 C 1.1875 -0.859375 1.140625 -0.925781 1.101562 -0.980469 L 0.710938 -0.367188 C 0.664062 -0.296875 0.632812 -0.246094 0.621094 -0.222656 C 0.609375 -0.199219 0.605469 -0.175781 0.605469 -0.160156 C 0.605469 -0.128906 0.617188 -0.109375 0.644531 -0.101562 C 0.667969 -0.0898438 0.722656 -0.078125 0.808594 -0.0703125 L 0.808594 0 L 0.0859375 0 L 0.0859375 -0.0703125 C 0.171875 -0.0859375 0.238281 -0.109375 0.28125 -0.136719 C 0.324219 -0.164062 0.378906 -0.230469 0.449219 -0.328125 L 1.019531 -1.15625 L 0.550781 -1.867188 C 0.457031 -2.007812 0.390625 -2.09375 0.355469 -2.117188 C 0.320312 -2.144531 0.238281 -2.164062 0.121094 -2.175781 L 0.121094 -2.242188 Z "/>
</g>
<g id="glyph-0-3">
<path d="M 0.386719 -0.425781 C 0.476562 -0.425781 0.597656 -0.378906 0.742188 -0.285156 C 0.890625 -0.191406 1.015625 -0.148438 1.117188 -0.148438 C 1.34375 -0.148438 1.515625 -0.222656 1.625 -0.378906 C 1.734375 -0.53125 1.792969 -0.699219 1.792969 -0.878906 C 1.792969 -1.054688 1.746094 -1.207031 1.65625 -1.335938 C 1.507812 -1.558594 1.25 -1.671875 0.890625 -1.671875 C 0.871094 -1.671875 0.851562 -1.671875 0.828125 -1.671875 C 0.808594 -1.671875 0.789062 -1.667969 0.761719 -1.664062 L 0.757812 -1.726562 C 1.015625 -1.820312 1.222656 -1.929688 1.371094 -2.054688 C 1.523438 -2.175781 1.597656 -2.335938 1.597656 -2.535156 C 1.597656 -2.714844 1.539062 -2.847656 1.417969 -2.941406 C 1.300781 -3.035156 1.167969 -3.082031 1.015625 -3.082031 C 0.835938 -3.082031 0.679688 -3.015625 0.542969 -2.882812 C 0.46875 -2.8125 0.386719 -2.699219 0.300781 -2.550781 L 0.226562 -2.570312 C 0.289062 -2.816406 0.410156 -3.011719 0.589844 -3.160156 C 0.765625 -3.308594 0.972656 -3.382812 1.203125 -3.382812 C 1.453125 -3.382812 1.644531 -3.316406 1.78125 -3.179688 C 1.917969 -3.042969 1.984375 -2.882812 1.984375 -2.703125 C 1.984375 -2.546875 1.929688 -2.402344 1.816406 -2.269531 C 1.753906 -2.195312 1.65625 -2.113281 1.519531 -2.019531 C 1.675781 -1.953125 1.800781 -1.875 1.898438 -1.785156 C 2.074219 -1.613281 2.164062 -1.398438 2.164062 -1.136719 C 2.164062 -0.828125 2.042969 -0.554688 1.796875 -0.316406 C 1.554688 -0.0820312 1.207031 0.0351562 0.757812 0.0351562 C 0.558594 0.0351562 0.417969 0.0078125 0.339844 -0.0507812 C 0.257812 -0.109375 0.21875 -0.175781 0.21875 -0.242188 C 0.21875 -0.285156 0.230469 -0.328125 0.257812 -0.367188 C 0.285156 -0.40625 0.328125 -0.425781 0.386719 -0.425781 Z "/>
</g>
</g>
</defs>
<g fill="rgb(100%, 100%, 100%)" fill-opacity="1">
<use xlink:href="#glyph-0-0" x="30" y="23.75"/>
<use xlink:href="#glyph-0-0" x="33" y="23.75"/>
<use xlink:href="#glyph-0-1" x="36" y="23.75"/>
<use xlink:href="#glyph-0-2" x="39" y="23.75"/>
<use xlink:href="#glyph-0-0" x="42" y="23.75"/>
<use xlink:href="#glyph-0-0" x="45" y="23.75"/>
<use xlink:href="#glyph-0-1" x="48" y="23.75"/>
<use xlink:href="#glyph-0-2" x="51" y="23.75"/>
<use xlink:href="#glyph-0-3" x="54" y="23.75"/>
</g>
</svg>
