<?xml version="1.0" encoding="UTF-8"?>
<svg xmlns="http://www.w3.org/2000/svg" xmlns:xlink="http://www.w3.org/1999/xlink" width="1920" height="1080" viewBox="0 0 1920 1080">
<defs>
<g>
<g id="glyph-0-0">
<path d="M 1.882812 -4.410156 L 1.882812 -4.289062 C 1.714844 -4.285156 1.601562 -4.273438 1.539062 -4.253906 C 1.433594 -4.21875 1.378906 -4.148438 1.378906 -4.042969 C 1.378906 -3.988281 1.398438 -3.914062 1.4375 -3.816406 C 1.476562 -3.71875 1.546875 -3.554688 1.652344 -3.324219 L 2.691406 -1.003906 L 3.640625 -3.515625 C 3.679688 -3.625 3.710938 -3.71875 3.734375 -3.796875 C 3.753906 -3.871094 3.765625 -3.933594 3.765625 -3.980469 C 3.765625 -4.109375 3.710938 -4.195312 3.601562 -4.242188 C 3.535156 -4.269531 3.429688 -4.28125 3.277344 -4.289062 L 3.277344 -4.410156 L 4.640625 -4.410156 L 4.640625 -4.296875 C 4.5 -4.277344 4.398438 -4.238281 4.328125 -4.183594 C 4.226562 -4.097656 4.125 -3.929688 4.027344 -3.671875 L 2.550781 0.078125 L 2.453125 0.078125 L 0.808594 -3.585938 C 0.667969 -3.898438 0.558594 -4.089844 0.472656 -4.167969 C 0.390625 -4.242188 0.269531 -4.285156 0.109375 -4.296875 L 0.109375 -4.410156 Z "/>
</g>
</g>
</defs>
<g fill="rgb(98.823529%, 38.431373%, 33.333333%)" fill-opacity="1">
<use xlink:href="#glyph-0-0" x="30" y="25"/>
</g>
</svg>
