<?xml version="1.0" encoding="UTF-8"?>
<svg xmlns="http://www.w3.org/2000/svg" xmlns:xlink="http://www.w3.org/1999/xlink" width="1920" height="1080" viewBox="0 0 1920 1080">
<defs>
<g>
<g id="glyph-0-0">
<path d="M 0.0742188 -0.121094 C 0.335938 -0.148438 0.5 -0.195312 0.566406 -0.265625 C 0.628906 -0.332031 0.660156 -0.511719 0.660156 -0.800781 L 0.660156 -3.6875 C 0.660156 -3.925781 0.625 -4.078125 0.554688 -4.152344 C 0.480469 -4.226562 0.324219 -4.269531 0.0742188 -4.289062 L 0.0742188 -4.410156 L 3.625 -4.410156 L 3.648438 -3.453125 L 3.464844 -3.453125 C 3.417969 -3.757812 3.332031 -3.953125 3.207031 -4.035156 C 3.082031 -4.117188 2.832031 -4.15625 2.460938 -4.15625 L 1.550781 -4.15625 C 1.460938 -4.15625 1.402344 -4.140625 1.378906 -4.113281 C 1.355469 -4.082031 1.339844 -4.019531 1.339844 -3.933594 L 1.339844 -2.445312 L 2.304688 -2.445312 C 2.589844 -2.445312 2.769531 -2.488281 2.847656 -2.570312 C 2.925781 -2.65625 2.988281 -2.828125 3.039062 -3.085938 L 3.195312 -3.085938 L 3.195312 -1.542969 L 3.039062 -1.542969 C 2.988281 -1.800781 2.921875 -1.972656 2.84375 -2.054688 C 2.765625 -2.140625 2.585938 -2.179688 2.304688 -2.179688 L 1.339844 -2.179688 L 1.339844 -0.722656 C 1.339844 -0.476562 1.378906 -0.320312 1.453125 -0.253906 C 1.527344 -0.183594 1.691406 -0.140625 1.945312 -0.121094 L 1.945312 0 L 0.0742188 0 Z "/>
</g>
<g id="glyph-0-1">
<path d="M 2.976562 -1.710938 L 2.203125 -3.546875 L 1.441406 -1.710938 Z M 0.0976562 0 L 0.0976562 -0.121094 C 0.269531 -0.140625 0.398438 -0.207031 0.484375 -0.316406 C 0.570312 -0.425781 0.714844 -0.726562 0.925781 -1.21875 L 2.316406 -4.488281 L 2.445312 -4.488281 L 4.105469 -0.710938 C 4.214844 -0.457031 4.304688 -0.300781 4.371094 -0.242188 C 4.4375 -0.183594 4.546875 -0.140625 4.703125 -0.121094 L 4.703125 0 L 3.007812 0 L 3.007812 -0.121094 C 3.203125 -0.136719 3.328125 -0.160156 3.386719 -0.183594 C 3.441406 -0.207031 3.46875 -0.269531 3.46875 -0.367188 C 3.46875 -0.398438 3.460938 -0.457031 3.4375 -0.539062 C 3.414062 -0.621094 3.386719 -0.710938 3.347656 -0.800781 L 3.070312 -1.441406 L 1.324219 -1.441406 C 1.152344 -1.003906 1.046875 -0.738281 1.015625 -0.644531 C 0.980469 -0.546875 0.964844 -0.46875 0.964844 -0.414062 C 0.964844 -0.300781 1.007812 -0.222656 1.101562 -0.179688 C 1.15625 -0.152344 1.261719 -0.132812 1.417969 -0.121094 L 1.417969 0 Z "/>
</g>
<g id="glyph-0-2">
<path d="M 0.121094 -0.121094 C 0.390625 -0.140625 0.558594 -0.191406 0.625 -0.265625 C 0.691406 -0.339844 0.722656 -0.519531 0.722656 -0.800781 L 0.722656 -3.6875 C 0.722656 -3.929688 0.6875 -4.085938 0.613281 -4.15625 C 0.539062 -4.226562 0.375 -4.269531 0.121094 -4.289062 L 0.121094 -4.410156 L 2.023438 -4.410156 L 2.023438 -4.289062 C 1.761719 -4.273438 1.59375 -4.230469 1.515625 -4.15625 C 1.441406 -4.082031 1.402344 -3.925781 1.402344 -3.6875 L 1.402344 -2.320312 C 1.8125 -2.671875 2.148438 -2.96875 2.410156 -3.214844 C 2.875 -3.660156 3.109375 -3.941406 3.109375 -4.070312 C 3.109375 -4.160156 3.070312 -4.214844 2.988281 -4.246094 C 2.910156 -4.273438 2.796875 -4.289062 2.652344 -4.289062 L 2.652344 -4.410156 L 4.398438 -4.410156 L 4.398438 -4.304688 C 4.183594 -4.28125 4.019531 -4.238281 3.894531 -4.175781 C 3.773438 -4.113281 3.601562 -3.976562 3.386719 -3.761719 L 2.121094 -2.523438 L 3.671875 -0.847656 C 3.960938 -0.535156 4.15625 -0.34375 4.261719 -0.265625 C 4.367188 -0.1875 4.519531 -0.136719 4.71875 -0.113281 L 4.71875 0 L 2.683594 0 L 2.683594 -0.121094 C 2.867188 -0.128906 2.992188 -0.140625 3.058594 -0.164062 C 3.121094 -0.1875 3.15625 -0.230469 3.15625 -0.300781 C 3.15625 -0.335938 3.132812 -0.394531 3.089844 -0.46875 C 3.046875 -0.542969 2.980469 -0.632812 2.890625 -0.734375 L 1.628906 -2.121094 L 1.402344 -1.925781 L 1.402344 -0.722656 C 1.402344 -0.476562 1.441406 -0.320312 1.515625 -0.253906 C 1.589844 -0.1875 1.753906 -0.140625 2.003906 -0.121094 L 2.003906 0 L 0.121094 0 Z "/>
</g>
<g id="glyph-0-3">
<path d="M 0.0742188 -0.121094 C 0.320312 -0.148438 0.480469 -0.191406 0.550781 -0.253906 C 0.625 -0.316406 0.660156 -0.472656 0.660156 -0.722656 L 0.660156 -3.6875 C 0.660156 -3.925781 0.625 -4.078125 0.554688 -4.152344 C 0.480469 -4.226562 0.324219 -4.269531 0.0742188 -4.289062 L 0.0742188 -4.410156 L 3.617188 -4.410156 L 3.640625 -3.453125 L 3.46875 -3.453125 C 3.414062 -3.75 3.328125 -3.941406 3.214844 -4.027344 C 3.101562 -4.113281 2.851562 -4.15625 2.460938 -4.15625 L 1.554688 -4.15625 C 1.457031 -4.15625 1.398438 -4.140625 1.375 -4.109375 C 1.351562 -4.078125 1.339844 -4.019531 1.339844 -3.933594 L 1.339844 -2.445312 L 2.367188 -2.445312 C 2.652344 -2.445312 2.832031 -2.488281 2.910156 -2.570312 C 2.988281 -2.65625 3.050781 -2.828125 3.097656 -3.085938 L 3.253906 -3.085938 L 3.253906 -1.542969 L 3.097656 -1.542969 C 3.046875 -1.800781 2.984375 -1.972656 2.90625 -2.054688 C 2.828125 -2.140625 2.648438 -2.179688 2.367188 -2.179688 L 1.339844 -2.179688 L 1.339844 -0.53125 C 1.339844 -0.398438 1.382812 -0.320312 1.464844 -0.296875 C 1.550781 -0.273438 1.800781 -0.261719 2.21875 -0.261719 C 2.667969 -0.261719 3 -0.308594 3.214844 -0.410156 C 3.429688 -0.507812 3.625 -0.746094 3.796875 -1.125 L 3.980469 -1.125 L 3.679688 0 L 0.0742188 0 Z "/>
</g>
</g>
</defs>
<g fill="rgb(98.823529%, 38.431373%, 33.333333%)" fill-opacity="1">
<use xlink:href="#glyph-0-0" x="30" y="25"/>
<use xlink:href="#glyph-0-1" x="33" y="25"/>
<use xlink:href="#glyph-0-2" x="38" y="25"/>
<use xlink:href="#glyph-0-3" x="43" y="25"/>
</g>
</svg>
