<?xml version="1.0" encoding="UTF-8"?>
<svg xmlns="http://www.w3.org/2000/svg" xmlns:xlink="http://www.w3.org/1999/xlink" width="1920" height="1080" viewBox="0 0 1920 1080">
<defs>
<g>
<g id="glyph-0-0">
<path d="M 1.488281 -0.179688 C 1.742188 -0.179688 1.957031 -0.230469 2.128906 -0.328125 C 2.300781 -0.429688 2.386719 -0.621094 2.386719 -0.902344 C 2.386719 -1.179688 2.285156 -1.371094 2.085938 -1.476562 C 1.882812 -1.578125 1.625 -1.628906 1.3125 -1.628906 C 1.238281 -1.628906 1.1875 -1.628906 1.167969 -1.628906 C 1.148438 -1.628906 1.117188 -1.628906 1.074219 -1.632812 L 1.074219 -0.386719 C 1.074219 -0.300781 1.097656 -0.242188 1.148438 -0.21875 C 1.195312 -0.195312 1.308594 -0.179688 1.488281 -0.179688 Z M 0.0859375 -0.0898438 C 0.289062 -0.101562 0.417969 -0.132812 0.476562 -0.183594 C 0.535156 -0.234375 0.566406 -0.355469 0.566406 -0.542969 L 0.566406 -2.765625 C 0.566406 -2.949219 0.535156 -3.070312 0.476562 -3.121094 C 0.417969 -3.175781 0.289062 -3.207031 0.0859375 -3.214844 L 0.0859375 -3.308594 L 1.488281 -3.308594 C 1.886719 -3.308594 2.203125 -3.242188 2.441406 -3.117188 C 2.675781 -2.988281 2.792969 -2.765625 2.792969 -2.453125 C 2.792969 -2.214844 2.710938 -2.035156 2.546875 -1.914062 C 2.453125 -1.84375 2.3125 -1.785156 2.128906 -1.742188 C 2.359375 -1.6875 2.554688 -1.59375 2.71875 -1.464844 C 2.878906 -1.335938 2.960938 -1.152344 2.960938 -0.921875 C 2.960938 -0.53125 2.78125 -0.261719 2.417969 -0.113281 C 2.226562 -0.0390625 1.996094 0 1.714844 0 L 0.0859375 0 Z M 1.550781 -1.828125 C 1.71875 -1.832031 1.855469 -1.859375 1.96875 -1.910156 C 2.179688 -2.007812 2.285156 -2.183594 2.285156 -2.433594 C 2.285156 -2.730469 2.164062 -2.933594 1.917969 -3.039062 C 1.785156 -3.09375 1.578125 -3.121094 1.304688 -3.121094 C 1.199219 -3.121094 1.136719 -3.113281 1.109375 -3.09375 C 1.085938 -3.078125 1.074219 -3.027344 1.074219 -2.949219 L 1.074219 -1.820312 Z "/>
</g>
<g id="glyph-0-1">
<path d="M 0.125 -1.132812 C 0.125 -1.457031 0.230469 -1.730469 0.4375 -1.953125 C 0.640625 -2.179688 0.90625 -2.289062 1.230469 -2.289062 C 1.554688 -2.289062 1.820312 -2.183594 2.03125 -1.972656 C 2.242188 -1.761719 2.347656 -1.480469 2.347656 -1.128906 C 2.347656 -0.804688 2.246094 -0.523438 2.039062 -0.28125 C 1.835938 -0.0429688 1.570312 0.0742188 1.246094 0.0742188 C 0.933594 0.0742188 0.667969 -0.0390625 0.453125 -0.269531 C 0.234375 -0.5 0.125 -0.785156 0.125 -1.132812 Z M 1.164062 -2.144531 C 1.035156 -2.144531 0.921875 -2.101562 0.828125 -2.015625 C 0.664062 -1.867188 0.582031 -1.613281 0.582031 -1.25 C 0.582031 -0.960938 0.648438 -0.691406 0.78125 -0.4375 C 0.910156 -0.1875 1.09375 -0.0625 1.324219 -0.0625 C 1.507812 -0.0625 1.648438 -0.148438 1.746094 -0.316406 C 1.84375 -0.484375 1.894531 -0.703125 1.894531 -0.972656 C 1.894531 -1.253906 1.832031 -1.519531 1.707031 -1.769531 C 1.582031 -2.019531 1.398438 -2.144531 1.164062 -2.144531 Z "/>
</g>
<g id="glyph-0-2">
<path d="M 0.410156 -3.152344 C 0.410156 -3.222656 0.433594 -3.28125 0.484375 -3.332031 C 0.53125 -3.382812 0.59375 -3.40625 0.664062 -3.40625 C 0.734375 -3.40625 0.792969 -3.382812 0.84375 -3.332031 C 0.894531 -3.285156 0.917969 -3.222656 0.917969 -3.152344 C 0.917969 -3.082031 0.894531 -3.023438 0.84375 -2.972656 C 0.792969 -2.921875 0.734375 -2.898438 0.664062 -2.898438 C 0.59375 -2.898438 0.53125 -2.921875 0.484375 -2.972656 C 0.433594 -3.023438 0.410156 -3.082031 0.410156 -3.152344 Z M 0.0976562 -0.0703125 C 0.273438 -0.0859375 0.382812 -0.113281 0.425781 -0.15625 C 0.472656 -0.199219 0.496094 -0.316406 0.496094 -0.507812 L 0.496094 -1.671875 C 0.496094 -1.777344 0.488281 -1.851562 0.472656 -1.890625 C 0.449219 -1.957031 0.398438 -1.992188 0.320312 -1.992188 C 0.300781 -1.992188 0.285156 -1.992188 0.265625 -1.988281 C 0.25 -1.984375 0.199219 -1.972656 0.121094 -1.949219 L 0.121094 -2.023438 L 0.226562 -2.058594 C 0.511719 -2.152344 0.707031 -2.222656 0.820312 -2.269531 C 0.867188 -2.289062 0.894531 -2.296875 0.90625 -2.296875 C 0.910156 -2.285156 0.914062 -2.273438 0.914062 -2.261719 L 0.914062 -0.507812 C 0.914062 -0.320312 0.933594 -0.207031 0.980469 -0.160156 C 1.023438 -0.113281 1.125 -0.0820312 1.285156 -0.0703125 L 1.285156 0 L 0.0976562 0 Z "/>
</g>
<g id="glyph-0-3">
<path d="M 1.183594 -2.308594 C 1.304688 -2.308594 1.410156 -2.28125 1.511719 -2.230469 C 1.578125 -2.195312 1.640625 -2.148438 1.699219 -2.085938 L 1.699219 -2.863281 C 1.699219 -2.960938 1.6875 -3.03125 1.667969 -3.070312 C 1.644531 -3.105469 1.59375 -3.125 1.507812 -3.125 C 1.488281 -3.125 1.472656 -3.125 1.457031 -3.121094 C 1.441406 -3.121094 1.410156 -3.117188 1.359375 -3.113281 L 1.359375 -3.195312 L 1.558594 -3.246094 C 1.632812 -3.265625 1.707031 -3.285156 1.78125 -3.304688 C 1.851562 -3.328125 1.917969 -3.347656 1.972656 -3.367188 C 2 -3.375 2.042969 -3.390625 2.101562 -3.414062 L 2.117188 -3.40625 L 2.113281 -3.152344 C 2.109375 -3.058594 2.109375 -2.964844 2.105469 -2.863281 C 2.105469 -2.765625 2.105469 -2.667969 2.105469 -2.574219 L 2.101562 -0.578125 C 2.101562 -0.472656 2.113281 -0.398438 2.140625 -0.355469 C 2.164062 -0.3125 2.234375 -0.292969 2.347656 -0.292969 C 2.363281 -0.292969 2.382812 -0.292969 2.398438 -0.292969 C 2.417969 -0.292969 2.4375 -0.296875 2.453125 -0.300781 L 2.453125 -0.21875 C 2.445312 -0.214844 2.324219 -0.175781 2.101562 -0.0976562 L 1.714844 0.046875 L 1.699219 0.0234375 L 1.699219 -0.277344 C 1.609375 -0.175781 1.527344 -0.105469 1.460938 -0.0625 C 1.34375 0.0117188 1.207031 0.046875 1.050781 0.046875 C 0.773438 0.046875 0.550781 -0.0625 0.378906 -0.273438 C 0.207031 -0.488281 0.121094 -0.738281 0.121094 -1.019531 C 0.121094 -1.371094 0.222656 -1.675781 0.429688 -1.925781 C 0.632812 -2.179688 0.886719 -2.308594 1.183594 -2.308594 Z M 1.273438 -0.21875 C 1.402344 -0.21875 1.503906 -0.253906 1.582031 -0.328125 C 1.660156 -0.402344 1.699219 -0.476562 1.699219 -0.542969 L 1.699219 -1.589844 C 1.699219 -1.800781 1.644531 -1.949219 1.53125 -2.039062 C 1.417969 -2.125 1.304688 -2.167969 1.199219 -2.167969 C 0.992188 -2.167969 0.835938 -2.078125 0.71875 -1.894531 C 0.605469 -1.714844 0.550781 -1.492188 0.550781 -1.226562 C 0.550781 -0.964844 0.609375 -0.730469 0.730469 -0.523438 C 0.851562 -0.320312 1.035156 -0.21875 1.273438 -0.21875 Z "/>
</g>
</g>
</defs>
<g fill="rgb(100%, 100%, 100%)" fill-opacity="1">
<use xlink:href="#glyph-0-0" x="30" y="23.75"/>
<use xlink:href="#glyph-0-1" x="33" y="23.75"/>
<use xlink:href="#glyph-0-2" x="36" y="23.75"/>
<use xlink:href="#glyph-0-3" x="37" y="23.75"/>
</g>
</svg>
