<?xml version="1.0" encoding="UTF-8"?>
<svg xmlns="http://www.w3.org/2000/svg" xmlns:xlink="http://www.w3.org/1999/xlink" width="1920" height="1080" viewBox="0 0 1920 1080">
<defs>
<g>
<g id="glyph-0-0">
<path d="M 0.109375 -3.675781 L 3.246094 -3.675781 L 3.277344 -2.730469 L 3.144531 -2.730469 C 3.078125 -3.027344 2.996094 -3.222656 2.894531 -3.3125 C 2.796875 -3.402344 2.585938 -3.445312 2.261719 -3.445312 L 1.953125 -3.445312 L 1.953125 -0.601562 C 1.953125 -0.386719 1.988281 -0.253906 2.054688 -0.203125 C 2.121094 -0.152344 2.265625 -0.117188 2.492188 -0.101562 L 2.492188 0 L 0.875 0 L 0.875 -0.101562 C 1.109375 -0.117188 1.253906 -0.15625 1.3125 -0.21875 C 1.371094 -0.277344 1.398438 -0.425781 1.398438 -0.667969 L 1.398438 -3.445312 L 1.089844 -3.445312 C 0.78125 -3.445312 0.574219 -3.402344 0.460938 -3.3125 C 0.351562 -3.222656 0.269531 -3.03125 0.210938 -2.730469 L 0.0742188 -2.730469 Z "/>
</g>
<g id="glyph-0-1">
<path d="M 0.0507812 -0.0742188 C 0.199219 -0.09375 0.292969 -0.132812 0.339844 -0.1875 C 0.386719 -0.238281 0.410156 -0.367188 0.410156 -0.5625 L 0.410156 -3.167969 C 0.410156 -3.269531 0.398438 -3.34375 0.371094 -3.390625 C 0.34375 -3.441406 0.28125 -3.464844 0.179688 -3.464844 C 0.160156 -3.464844 0.140625 -3.460938 0.121094 -3.460938 C 0.101562 -3.457031 0.0820312 -3.453125 0.0585938 -3.449219 L 0.0585938 -3.546875 C 0.136719 -3.570312 0.234375 -3.601562 0.351562 -3.632812 C 0.46875 -3.667969 0.550781 -3.691406 0.59375 -3.707031 L 0.855469 -3.785156 L 0.859375 -3.769531 L 0.859375 -2.101562 C 0.972656 -2.230469 1.074219 -2.328125 1.164062 -2.390625 C 1.324219 -2.5 1.496094 -2.550781 1.679688 -2.550781 C 1.972656 -2.550781 2.171875 -2.429688 2.277344 -2.183594 C 2.335938 -2.054688 2.367188 -1.882812 2.367188 -1.671875 L 2.367188 -0.5625 C 2.367188 -0.371094 2.386719 -0.246094 2.433594 -0.191406 C 2.476562 -0.132812 2.566406 -0.09375 2.703125 -0.0742188 L 2.703125 0 L 1.53125 0 L 1.53125 -0.0742188 C 1.6875 -0.0976562 1.789062 -0.132812 1.832031 -0.1875 C 1.878906 -0.238281 1.902344 -0.367188 1.902344 -0.5625 L 1.902344 -1.664062 C 1.902344 -1.839844 1.871094 -1.980469 1.8125 -2.089844 C 1.753906 -2.199219 1.644531 -2.25 1.480469 -2.25 C 1.339844 -2.25 1.203125 -2.199219 1.070312 -2.101562 C 0.9375 -2 0.875 -1.933594 0.875 -1.902344 L 0.875 -0.5625 C 0.875 -0.359375 0.898438 -0.234375 0.945312 -0.183594 C 0.992188 -0.132812 1.089844 -0.0976562 1.246094 -0.0742188 L 1.246094 0 L 0.0507812 0 Z "/>
</g>
<g id="glyph-0-2">
<path d="M 1.273438 -2.542969 C 1.527344 -2.542969 1.75 -2.457031 1.941406 -2.28125 C 2.132812 -2.105469 2.230469 -1.855469 2.230469 -1.53125 L 0.507812 -1.53125 C 0.527344 -1.109375 0.621094 -0.804688 0.792969 -0.613281 C 0.964844 -0.421875 1.167969 -0.324219 1.402344 -0.324219 C 1.59375 -0.324219 1.753906 -0.375 1.882812 -0.476562 C 2.011719 -0.574219 2.132812 -0.714844 2.242188 -0.898438 L 2.339844 -0.867188 C 2.265625 -0.636719 2.125 -0.421875 1.921875 -0.226562 C 1.71875 -0.03125 1.46875 0.0664062 1.175781 0.0664062 C 0.835938 0.0664062 0.570312 -0.0625 0.386719 -0.320312 C 0.203125 -0.578125 0.109375 -0.871094 0.109375 -1.207031 C 0.109375 -1.570312 0.214844 -1.882812 0.429688 -2.148438 C 0.644531 -2.414062 0.925781 -2.542969 1.273438 -2.542969 Z M 1.113281 -2.347656 C 0.910156 -2.347656 0.75 -2.253906 0.644531 -2.074219 C 0.585938 -1.976562 0.542969 -1.851562 0.519531 -1.703125 L 1.664062 -1.703125 C 1.644531 -1.882812 1.609375 -2.019531 1.558594 -2.109375 C 1.472656 -2.265625 1.324219 -2.347656 1.113281 -2.347656 Z "/>
</g>
</g>
</defs>
<g fill="rgb(100%, 100%, 100%)" fill-opacity="1">
<use xlink:href="#glyph-0-0" x="30" y="24.166992"/>
<use xlink:href="#glyph-0-1" x="33" y="24.166992"/>
<use xlink:href="#glyph-0-2" x="36" y="24.166992"/>
</g>
</svg>
