<?xml version="1.0" encoding="UTF-8"?>
<svg xmlns="http://www.w3.org/2000/svg" xmlns:xlink="http://www.w3.org/1999/xlink" width="1920" height="1080" viewBox="0 0 1920 1080">
<defs>
<g>
<g id="glyph-0-0">
<path d="M 2.46875 -4.488281 C 2.707031 -4.488281 2.957031 -4.453125 3.210938 -4.382812 C 3.464844 -4.308594 3.605469 -4.273438 3.636719 -4.273438 C 3.699219 -4.273438 3.757812 -4.292969 3.816406 -4.328125 C 3.871094 -4.363281 3.910156 -4.414062 3.933594 -4.488281 L 4.074219 -4.488281 L 4.132812 -2.992188 L 3.980469 -2.992188 C 3.890625 -3.289062 3.777344 -3.527344 3.632812 -3.710938 C 3.359375 -4.054688 2.992188 -4.226562 2.53125 -4.226562 C 2.0625 -4.226562 1.679688 -4.039062 1.386719 -3.671875 C 1.089844 -3.304688 0.941406 -2.796875 0.941406 -2.148438 C 0.941406 -1.554688 1.097656 -1.078125 1.40625 -0.722656 C 1.71875 -0.367188 2.113281 -0.191406 2.589844 -0.191406 C 2.9375 -0.191406 3.253906 -0.273438 3.546875 -0.441406 C 3.710938 -0.535156 3.894531 -0.675781 4.09375 -0.863281 L 4.21875 -0.738281 C 4.070312 -0.550781 3.886719 -0.386719 3.667969 -0.246094 C 3.296875 -0.0078125 2.890625 0.109375 2.453125 0.109375 C 1.738281 0.109375 1.167969 -0.117188 0.75 -0.578125 C 0.359375 -1 0.167969 -1.527344 0.167969 -2.160156 C 0.167969 -2.808594 0.371094 -3.355469 0.78125 -3.796875 C 1.214844 -4.257812 1.773438 -4.488281 2.46875 -4.488281 Z "/>
</g>
<g id="glyph-0-1">
<path d="M 0.167969 -1.511719 C 0.167969 -1.941406 0.304688 -2.308594 0.582031 -2.605469 C 0.855469 -2.902344 1.207031 -3.054688 1.640625 -3.054688 C 2.070312 -3.054688 2.425781 -2.914062 2.707031 -2.628906 C 2.988281 -2.347656 3.132812 -1.972656 3.132812 -1.503906 C 3.132812 -1.070312 2.996094 -0.695312 2.722656 -0.378906 C 2.449219 -0.0585938 2.09375 0.101562 1.660156 0.101562 C 1.242188 0.101562 0.890625 -0.0507812 0.601562 -0.359375 C 0.3125 -0.664062 0.167969 -1.046875 0.167969 -1.511719 Z M 1.550781 -2.859375 C 1.378906 -2.859375 1.230469 -2.800781 1.105469 -2.6875 C 0.886719 -2.492188 0.777344 -2.152344 0.777344 -1.667969 C 0.777344 -1.28125 0.867188 -0.921875 1.039062 -0.585938 C 1.214844 -0.25 1.457031 -0.0859375 1.769531 -0.0859375 C 2.011719 -0.0859375 2.199219 -0.195312 2.328125 -0.421875 C 2.460938 -0.644531 2.527344 -0.9375 2.527344 -1.300781 C 2.527344 -1.675781 2.441406 -2.027344 2.277344 -2.359375 C 2.109375 -2.691406 1.867188 -2.859375 1.550781 -2.859375 Z "/>
</g>
<g id="glyph-0-2">
<path d="M 0.121094 -0.0898438 C 0.273438 -0.109375 0.382812 -0.148438 0.445312 -0.207031 C 0.507812 -0.265625 0.539062 -0.394531 0.539062 -0.59375 L 0.539062 -2.242188 C 0.539062 -2.382812 0.523438 -2.480469 0.5 -2.535156 C 0.457031 -2.617188 0.371094 -2.660156 0.246094 -2.660156 C 0.226562 -2.660156 0.203125 -2.660156 0.183594 -2.65625 C 0.164062 -2.652344 0.136719 -2.652344 0.109375 -2.648438 L 0.109375 -2.761719 C 0.195312 -2.785156 0.40625 -2.855469 0.738281 -2.960938 L 1.046875 -3.0625 C 1.0625 -3.0625 1.070312 -3.058594 1.074219 -3.046875 C 1.078125 -3.035156 1.078125 -3.019531 1.078125 -3 L 1.078125 -2.523438 C 1.277344 -2.710938 1.433594 -2.835938 1.546875 -2.90625 C 1.714844 -3.011719 1.890625 -3.066406 2.074219 -3.066406 C 2.222656 -3.066406 2.355469 -3.023438 2.476562 -2.941406 C 2.710938 -2.773438 2.828125 -2.480469 2.828125 -2.058594 L 2.828125 -0.539062 C 2.828125 -0.382812 2.859375 -0.269531 2.921875 -0.199219 C 2.984375 -0.128906 3.089844 -0.09375 3.238281 -0.0898438 L 3.238281 0 L 1.847656 0 L 1.847656 -0.0898438 C 2.007812 -0.113281 2.117188 -0.15625 2.179688 -0.222656 C 2.242188 -0.289062 2.277344 -0.433594 2.277344 -0.65625 L 2.277344 -2.042969 C 2.277344 -2.230469 2.242188 -2.386719 2.171875 -2.507812 C 2.101562 -2.628906 1.972656 -2.691406 1.789062 -2.691406 C 1.660156 -2.691406 1.527344 -2.648438 1.398438 -2.5625 C 1.324219 -2.511719 1.226562 -2.429688 1.109375 -2.316406 L 1.109375 -0.492188 C 1.109375 -0.335938 1.144531 -0.230469 1.214844 -0.175781 C 1.285156 -0.125 1.394531 -0.09375 1.542969 -0.0898438 L 1.542969 0 L 0.121094 0 Z "/>
</g>
<g id="glyph-0-3">
<path d="M 1.695312 -3 L 1.695312 -2.765625 L 1.03125 -2.765625 L 1.027344 -0.890625 C 1.027344 -0.726562 1.039062 -0.601562 1.066406 -0.519531 C 1.121094 -0.367188 1.222656 -0.292969 1.375 -0.292969 C 1.453125 -0.292969 1.519531 -0.3125 1.578125 -0.347656 C 1.636719 -0.386719 1.699219 -0.445312 1.773438 -0.523438 L 1.859375 -0.453125 L 1.789062 -0.355469 C 1.675781 -0.203125 1.554688 -0.09375 1.429688 -0.03125 C 1.304688 0.03125 1.183594 0.0625 1.066406 0.0625 C 0.808594 0.0625 0.636719 -0.0507812 0.542969 -0.28125 C 0.492188 -0.402344 0.46875 -0.574219 0.46875 -0.792969 L 0.46875 -2.765625 L 0.113281 -2.765625 C 0.101562 -2.773438 0.09375 -2.78125 0.0898438 -2.785156 C 0.0859375 -2.792969 0.0820312 -2.800781 0.0820312 -2.8125 C 0.0820312 -2.835938 0.0859375 -2.851562 0.0976562 -2.863281 C 0.105469 -2.875 0.136719 -2.902344 0.1875 -2.945312 C 0.339844 -3.070312 0.445312 -3.171875 0.511719 -3.246094 C 0.578125 -3.324219 0.734375 -3.527344 0.980469 -3.859375 C 1.007812 -3.859375 1.023438 -3.855469 1.03125 -3.851562 C 1.035156 -3.847656 1.039062 -3.832031 1.039062 -3.800781 L 1.039062 -3 Z "/>
</g>
<g id="glyph-0-4">
<path d="M 1.527344 -3.054688 C 1.832031 -3.054688 2.101562 -2.949219 2.332031 -2.734375 C 2.5625 -2.523438 2.675781 -2.222656 2.675781 -1.835938 L 0.609375 -1.835938 C 0.628906 -1.332031 0.746094 -0.964844 0.949219 -0.734375 C 1.15625 -0.503906 1.402344 -0.390625 1.683594 -0.390625 C 1.910156 -0.390625 2.101562 -0.449219 2.257812 -0.570312 C 2.414062 -0.6875 2.558594 -0.859375 2.691406 -1.078125 L 2.804688 -1.039062 C 2.714844 -0.761719 2.550781 -0.507812 2.304688 -0.273438 C 2.0625 -0.0390625 1.761719 0.078125 1.410156 0.078125 C 1 0.078125 0.6875 -0.0742188 0.464844 -0.382812 C 0.242188 -0.691406 0.128906 -1.046875 0.128906 -1.449219 C 0.128906 -1.886719 0.257812 -2.261719 0.519531 -2.578125 C 0.777344 -2.894531 1.113281 -3.054688 1.527344 -3.054688 Z M 1.339844 -2.816406 C 1.089844 -2.816406 0.902344 -2.707031 0.773438 -2.488281 C 0.703125 -2.371094 0.652344 -2.222656 0.621094 -2.042969 L 1.996094 -2.042969 C 1.972656 -2.261719 1.929688 -2.421875 1.871094 -2.53125 C 1.765625 -2.722656 1.585938 -2.816406 1.339844 -2.816406 Z "/>
</g>
<g id="glyph-0-5">
<path d="M 1.542969 -2.992188 L 1.542969 -2.902344 C 1.460938 -2.898438 1.390625 -2.886719 1.332031 -2.867188 C 1.273438 -2.847656 1.246094 -2.804688 1.246094 -2.738281 C 1.246094 -2.695312 1.304688 -2.582031 1.417969 -2.390625 C 1.480469 -2.289062 1.558594 -2.167969 1.652344 -2.023438 C 1.777344 -2.199219 1.875 -2.335938 1.9375 -2.433594 C 2.042969 -2.59375 2.097656 -2.699219 2.097656 -2.746094 C 2.097656 -2.804688 2.074219 -2.84375 2.027344 -2.863281 C 1.980469 -2.882812 1.917969 -2.894531 1.835938 -2.902344 L 1.835938 -2.992188 L 2.882812 -2.992188 L 2.882812 -2.902344 C 2.773438 -2.890625 2.671875 -2.863281 2.574219 -2.8125 C 2.480469 -2.761719 2.402344 -2.691406 2.34375 -2.609375 L 1.789062 -1.804688 L 2.648438 -0.5 C 2.757812 -0.332031 2.851562 -0.222656 2.929688 -0.171875 C 3.003906 -0.121094 3.09375 -0.09375 3.195312 -0.0898438 L 3.195312 0 L 1.847656 0 L 1.847656 -0.0898438 L 1.945312 -0.0976562 C 1.992188 -0.101562 2.035156 -0.117188 2.070312 -0.144531 C 2.101562 -0.167969 2.121094 -0.203125 2.121094 -0.242188 C 2.121094 -0.28125 2.078125 -0.375 1.996094 -0.515625 C 1.957031 -0.585938 1.898438 -0.679688 1.820312 -0.796875 C 1.78125 -0.855469 1.726562 -0.9375 1.65625 -1.042969 C 1.582031 -1.144531 1.519531 -1.234375 1.472656 -1.308594 L 0.949219 -0.492188 C 0.886719 -0.394531 0.84375 -0.328125 0.832031 -0.296875 C 0.816406 -0.265625 0.808594 -0.238281 0.808594 -0.214844 C 0.808594 -0.171875 0.824219 -0.148438 0.859375 -0.132812 C 0.890625 -0.121094 0.964844 -0.105469 1.078125 -0.0898438 L 1.078125 0 L 0.113281 0 L 0.113281 -0.0898438 C 0.230469 -0.113281 0.316406 -0.144531 0.375 -0.183594 C 0.429688 -0.21875 0.503906 -0.304688 0.597656 -0.441406 L 1.359375 -1.542969 L 0.734375 -2.492188 C 0.605469 -2.679688 0.519531 -2.789062 0.472656 -2.824219 C 0.425781 -2.859375 0.320312 -2.886719 0.160156 -2.902344 L 0.160156 -2.992188 Z "/>
</g>
<g id="glyph-0-6">
<rect x="0" y="0" width="0" height="0" mask="url(#mask-0)"/>
</g>
<g id="glyph-0-7">
<path d="M 1.664062 -4.410156 L 1.664062 -4.289062 C 1.53125 -4.285156 1.4375 -4.269531 1.378906 -4.25 C 1.28125 -4.214844 1.230469 -4.148438 1.230469 -4.050781 C 1.230469 -4.007812 1.238281 -3.964844 1.25 -3.921875 C 1.261719 -3.882812 1.277344 -3.828125 1.300781 -3.761719 L 2.265625 -1.257812 L 2.976562 -3.136719 L 2.660156 -3.941406 C 2.601562 -4.089844 2.511719 -4.1875 2.394531 -4.238281 C 2.324219 -4.269531 2.222656 -4.285156 2.082031 -4.289062 L 2.082031 -4.410156 L 3.863281 -4.410156 L 3.863281 -4.289062 C 3.695312 -4.285156 3.582031 -4.273438 3.519531 -4.25 C 3.417969 -4.214844 3.371094 -4.136719 3.371094 -4.023438 C 3.371094 -3.984375 3.375 -3.949219 3.382812 -3.921875 C 3.390625 -3.890625 3.414062 -3.832031 3.449219 -3.742188 L 4.410156 -1.242188 L 5.246094 -3.503906 C 5.292969 -3.632812 5.324219 -3.746094 5.34375 -3.84375 C 5.351562 -3.902344 5.359375 -3.945312 5.359375 -3.980469 C 5.359375 -4.105469 5.300781 -4.191406 5.183594 -4.238281 C 5.117188 -4.265625 5.019531 -4.28125 4.890625 -4.289062 L 4.890625 -4.410156 L 6.210938 -4.410156 L 6.210938 -4.289062 C 6.089844 -4.269531 6 -4.242188 5.9375 -4.207031 C 5.824219 -4.144531 5.742188 -4.035156 5.683594 -3.878906 L 4.972656 -1.898438 L 4.699219 -1.132812 L 4.296875 0.078125 L 4.195312 0.078125 L 3.925781 -0.695312 L 3.132812 -2.746094 L 2.105469 0.078125 L 2.003906 0.078125 L 1.527344 -1.308594 L 0.953125 -2.867188 C 0.71875 -3.511719 0.554688 -3.90625 0.460938 -4.050781 C 0.367188 -4.199219 0.226562 -4.277344 0.03125 -4.289062 L 0.03125 -4.410156 Z "/>
</g>
<g id="glyph-0-8">
<path d="M 0.546875 -4.203125 C 0.546875 -4.296875 0.578125 -4.375 0.644531 -4.445312 C 0.710938 -4.511719 0.789062 -4.542969 0.886719 -4.542969 C 0.980469 -4.542969 1.058594 -4.511719 1.125 -4.445312 C 1.191406 -4.378906 1.222656 -4.296875 1.222656 -4.203125 C 1.222656 -4.109375 1.191406 -4.03125 1.125 -3.964844 C 1.058594 -3.898438 0.980469 -3.863281 0.886719 -3.863281 C 0.789062 -3.863281 0.710938 -3.898438 0.644531 -3.964844 C 0.578125 -4.03125 0.546875 -4.109375 0.546875 -4.203125 Z M 0.128906 -0.0898438 C 0.363281 -0.113281 0.507812 -0.152344 0.570312 -0.210938 C 0.628906 -0.269531 0.660156 -0.421875 0.660156 -0.675781 L 0.660156 -2.230469 C 0.660156 -2.371094 0.652344 -2.46875 0.632812 -2.523438 C 0.597656 -2.613281 0.53125 -2.65625 0.425781 -2.65625 C 0.402344 -2.65625 0.378906 -2.652344 0.355469 -2.648438 C 0.332031 -2.644531 0.269531 -2.628906 0.160156 -2.597656 L 0.160156 -2.699219 L 0.300781 -2.746094 C 0.679688 -2.867188 0.945312 -2.960938 1.09375 -3.023438 C 1.15625 -3.050781 1.195312 -3.0625 1.210938 -3.0625 C 1.214844 -3.046875 1.21875 -3.03125 1.21875 -3.015625 L 1.21875 -0.675781 C 1.21875 -0.429688 1.246094 -0.273438 1.308594 -0.210938 C 1.367188 -0.148438 1.5 -0.109375 1.710938 -0.0898438 L 1.710938 0 L 0.128906 0 Z "/>
</g>
<g id="glyph-0-9">
<path d="M 1.578125 -3.078125 C 1.738281 -3.078125 1.882812 -3.042969 2.015625 -2.972656 C 2.101562 -2.925781 2.183594 -2.863281 2.265625 -2.785156 L 2.265625 -3.820312 C 2.265625 -3.953125 2.25 -4.042969 2.222656 -4.09375 C 2.191406 -4.140625 2.121094 -4.167969 2.011719 -4.167969 C 1.984375 -4.167969 1.964844 -4.164062 1.945312 -4.164062 C 1.925781 -4.160156 1.878906 -4.15625 1.8125 -4.152344 L 1.8125 -4.257812 L 2.082031 -4.328125 C 2.179688 -4.351562 2.277344 -4.378906 2.375 -4.40625 C 2.472656 -4.433594 2.554688 -4.464844 2.628906 -4.488281 C 2.664062 -4.5 2.722656 -4.519531 2.804688 -4.550781 L 2.824219 -4.542969 L 2.816406 -4.203125 C 2.8125 -4.078125 2.8125 -3.953125 2.808594 -3.820312 C 2.808594 -3.6875 2.804688 -3.558594 2.804688 -3.429688 L 2.800781 -0.773438 C 2.800781 -0.632812 2.816406 -0.53125 2.851562 -0.476562 C 2.886719 -0.417969 2.980469 -0.390625 3.128906 -0.390625 C 3.152344 -0.390625 3.175781 -0.390625 3.199219 -0.390625 C 3.222656 -0.394531 3.246094 -0.394531 3.273438 -0.402344 L 3.273438 -0.292969 C 3.257812 -0.289062 3.101562 -0.234375 2.800781 -0.128906 L 2.289062 0.0625 L 2.265625 0.03125 L 2.265625 -0.367188 C 2.144531 -0.234375 2.039062 -0.140625 1.949219 -0.0859375 C 1.792969 0.0117188 1.609375 0.0625 1.398438 0.0625 C 1.03125 0.0625 0.730469 -0.0820312 0.503906 -0.367188 C 0.273438 -0.652344 0.160156 -0.980469 0.160156 -1.359375 C 0.160156 -1.828125 0.296875 -2.234375 0.570312 -2.570312 C 0.84375 -2.90625 1.183594 -3.078125 1.578125 -3.078125 Z M 1.699219 -0.289062 C 1.867188 -0.289062 2.003906 -0.339844 2.109375 -0.441406 C 2.214844 -0.539062 2.265625 -0.632812 2.265625 -0.722656 L 2.265625 -2.121094 C 2.265625 -2.402344 2.191406 -2.601562 2.039062 -2.714844 C 1.886719 -2.832031 1.742188 -2.890625 1.597656 -2.890625 C 1.324219 -2.890625 1.113281 -2.769531 0.960938 -2.527344 C 0.808594 -2.285156 0.734375 -1.988281 0.734375 -1.632812 C 0.734375 -1.285156 0.8125 -0.972656 0.976562 -0.699219 C 1.136719 -0.425781 1.378906 -0.289062 1.699219 -0.289062 Z "/>
</g>
<g id="glyph-0-10">
<path d="M 3.097656 -2.921875 C 2.96875 -2.90625 2.871094 -2.886719 2.808594 -2.859375 C 2.746094 -2.832031 2.714844 -2.773438 2.714844 -2.6875 C 2.714844 -2.644531 2.722656 -2.597656 2.734375 -2.546875 C 2.75 -2.5 2.769531 -2.441406 2.792969 -2.375 L 3.386719 -0.832031 L 3.964844 -2.242188 C 3.992188 -2.304688 4.019531 -2.382812 4.050781 -2.480469 C 4.082031 -2.582031 4.09375 -2.65625 4.09375 -2.707031 C 4.09375 -2.785156 4.070312 -2.839844 4.019531 -2.867188 C 3.96875 -2.894531 3.898438 -2.917969 3.800781 -2.929688 L 3.800781 -3.023438 L 4.628906 -3.023438 L 4.628906 -2.929688 C 4.574219 -2.917969 4.53125 -2.894531 4.496094 -2.851562 C 4.460938 -2.808594 4.410156 -2.710938 4.347656 -2.558594 L 3.308594 0.0117188 C 3.300781 0.03125 3.292969 0.0429688 3.285156 0.0507812 C 3.277344 0.0585938 3.269531 0.0664062 3.253906 0.0664062 C 3.230469 0.0507812 3.214844 0.0429688 3.210938 0.03125 L 2.472656 -1.789062 L 1.617188 0.0273438 C 1.613281 0.0390625 1.609375 0.046875 1.601562 0.0546875 C 1.59375 0.0625 1.582031 0.0664062 1.574219 0.0664062 C 1.546875 0.0507812 1.53125 0.0429688 1.527344 0.03125 L 0.554688 -2.367188 C 0.449219 -2.628906 0.375 -2.785156 0.34375 -2.832031 C 0.308594 -2.878906 0.238281 -2.90625 0.136719 -2.921875 L 0.136719 -3.023438 L 1.339844 -3.023438 L 1.339844 -2.921875 C 1.242188 -2.914062 1.164062 -2.898438 1.113281 -2.871094 C 1.058594 -2.84375 1.03125 -2.785156 1.03125 -2.695312 C 1.03125 -2.632812 1.078125 -2.476562 1.164062 -2.234375 C 1.21875 -2.09375 1.285156 -1.921875 1.363281 -1.71875 L 1.734375 -0.792969 L 2.320312 -2.050781 L 2.328125 -2.089844 C 2.328125 -2.132812 2.304688 -2.214844 2.257812 -2.332031 C 2.210938 -2.449219 2.164062 -2.554688 2.121094 -2.648438 C 2.078125 -2.746094 2.03125 -2.816406 1.972656 -2.851562 C 1.917969 -2.890625 1.839844 -2.914062 1.742188 -2.921875 L 1.742188 -3.023438 L 3.097656 -3.023438 Z "/>
</g>
</g>
<image id="source-70" x="0" y="0" width="0" height="0"/>
<mask id="mask-0">
<use xlink:href="#source-70"/>
</mask>
</defs>
<g fill="rgb(61.176471%, 86.27451%, 92.156863%)" fill-opacity="1">
<use xlink:href="#glyph-0-0" x="30" y="25"/>
<use xlink:href="#glyph-0-1" x="34" y="25"/>
<use xlink:href="#glyph-0-2" x="37" y="25"/>
<use xlink:href="#glyph-0-3" x="40" y="25"/>
<use xlink:href="#glyph-0-4" x="42" y="25"/>
<use xlink:href="#glyph-0-5" x="45" y="25"/>
<use xlink:href="#glyph-0-3" x="48" y="25"/>
<use xlink:href="#glyph-0-6" x="50" y="25"/>
<use xlink:href="#glyph-0-7" x="52" y="25"/>
<use xlink:href="#glyph-0-8" x="58" y="25"/>
<use xlink:href="#glyph-0-2" x="60" y="25"/>
<use xlink:href="#glyph-0-9" x="63" y="25"/>
<use xlink:href="#glyph-0-1" x="66" y="25"/>
<use xlink:href="#glyph-0-10" x="69" y="25"/>
</g>
</svg>
