<?xml version="1.0" encoding="UTF-8"?>
<svg xmlns="http://www.w3.org/2000/svg" xmlns:xlink="http://www.w3.org/1999/xlink" width="1920" height="1080" viewBox="0 0 1920 1080">
<defs>
<g>
<g id="glyph-0-0">
<path d="M 0.992188 -1.710938 C 1.351562 -1.722656 1.609375 -1.761719 1.765625 -1.824219 C 2.03125 -1.933594 2.164062 -2.136719 2.164062 -2.4375 C 2.164062 -2.726562 2.042969 -2.925781 1.804688 -3.03125 C 1.679688 -3.089844 1.511719 -3.117188 1.300781 -3.117188 C 1.160156 -3.117188 1.074219 -3.109375 1.042969 -3.085938 C 1.011719 -3.066406 0.992188 -3.019531 0.992188 -2.945312 Z M 0.0546875 -0.0898438 C 0.246094 -0.109375 0.367188 -0.144531 0.414062 -0.203125 C 0.460938 -0.257812 0.484375 -0.390625 0.484375 -0.601562 L 0.484375 -2.765625 C 0.484375 -2.941406 0.460938 -3.058594 0.40625 -3.113281 C 0.351562 -3.167969 0.238281 -3.199219 0.0546875 -3.214844 L 0.0546875 -3.308594 L 1.441406 -3.308594 C 1.730469 -3.308594 1.96875 -3.273438 2.160156 -3.199219 C 2.523438 -3.058594 2.707031 -2.804688 2.707031 -2.433594 C 2.707031 -2.183594 2.625 -1.992188 2.464844 -1.859375 C 2.304688 -1.726562 2.082031 -1.640625 1.804688 -1.597656 L 2.835938 -0.328125 C 2.898438 -0.25 2.960938 -0.195312 3.023438 -0.160156 C 3.085938 -0.125 3.167969 -0.101562 3.269531 -0.0898438 L 3.269531 0 L 2.464844 0 L 1.273438 -1.539062 L 0.992188 -1.527344 L 0.992188 -0.542969 C 0.992188 -0.355469 1.023438 -0.238281 1.078125 -0.1875 C 1.132812 -0.140625 1.257812 -0.105469 1.445312 -0.0898438 L 1.445312 0 L 0.0546875 0 Z "/>
</g>
<g id="glyph-0-1">
<path d="M 1.144531 -2.289062 C 1.375 -2.289062 1.574219 -2.210938 1.75 -2.050781 C 1.921875 -1.894531 2.007812 -1.667969 2.007812 -1.375 L 0.457031 -1.375 C 0.472656 -1 0.558594 -0.722656 0.710938 -0.550781 C 0.867188 -0.378906 1.050781 -0.292969 1.261719 -0.292969 C 1.433594 -0.292969 1.578125 -0.335938 1.695312 -0.425781 C 1.8125 -0.515625 1.917969 -0.644531 2.019531 -0.808594 L 2.105469 -0.777344 C 2.039062 -0.570312 1.914062 -0.382812 1.730469 -0.203125 C 1.546875 -0.0273438 1.324219 0.0585938 1.058594 0.0585938 C 0.75 0.0585938 0.515625 -0.0585938 0.347656 -0.289062 C 0.179688 -0.519531 0.0976562 -0.785156 0.0976562 -1.085938 C 0.0976562 -1.414062 0.195312 -1.695312 0.386719 -1.933594 C 0.582031 -2.171875 0.835938 -2.289062 1.144531 -2.289062 Z M 1.003906 -2.113281 C 0.816406 -2.113281 0.675781 -2.03125 0.578125 -1.867188 C 0.527344 -1.777344 0.488281 -1.667969 0.464844 -1.53125 L 1.496094 -1.53125 C 1.476562 -1.695312 1.449219 -1.816406 1.402344 -1.898438 C 1.324219 -2.039062 1.191406 -2.113281 1.003906 -2.113281 Z "/>
</g>
<g id="glyph-0-2">
<path d="M 0.0546875 -0.0898438 C 0.238281 -0.109375 0.359375 -0.144531 0.414062 -0.1875 C 0.46875 -0.234375 0.496094 -0.351562 0.496094 -0.542969 L 0.496094 -2.765625 C 0.496094 -2.945312 0.46875 -3.058594 0.414062 -3.113281 C 0.359375 -3.167969 0.242188 -3.203125 0.0546875 -3.214844 L 0.0546875 -3.308594 L 1.46875 -3.308594 L 1.46875 -3.214844 C 1.285156 -3.207031 1.164062 -3.175781 1.101562 -3.125 C 1.039062 -3.074219 1.007812 -2.964844 1.007812 -2.800781 L 1.007812 -0.398438 C 1.007812 -0.34375 1.015625 -0.300781 1.035156 -0.265625 C 1.054688 -0.234375 1.09375 -0.214844 1.15625 -0.207031 C 1.195312 -0.203125 1.234375 -0.199219 1.277344 -0.199219 C 1.316406 -0.195312 1.394531 -0.195312 1.507812 -0.195312 C 1.953125 -0.195312 2.253906 -0.230469 2.410156 -0.304688 C 2.566406 -0.378906 2.71875 -0.566406 2.863281 -0.867188 L 2.992188 -0.867188 L 2.746094 0 L 0.0546875 0 Z "/>
</g>
<g id="glyph-0-3">
<path d="M 1.488281 -3.308594 L 1.488281 -3.214844 C 1.296875 -3.203125 1.171875 -3.171875 1.113281 -3.117188 C 1.054688 -3.066406 1.027344 -2.949219 1.027344 -2.765625 L 1.027344 -1.167969 C 1.027344 -0.90625 1.0625 -0.699219 1.136719 -0.554688 C 1.269531 -0.289062 1.523438 -0.152344 1.894531 -0.152344 C 2.304688 -0.152344 2.578125 -0.289062 2.71875 -0.5625 C 2.796875 -0.714844 2.835938 -0.953125 2.835938 -1.273438 L 2.835938 -2.574219 C 2.835938 -2.84375 2.800781 -3.015625 2.738281 -3.085938 C 2.671875 -3.15625 2.546875 -3.199219 2.367188 -3.214844 L 2.367188 -3.308594 L 3.523438 -3.308594 L 3.523438 -3.214844 C 3.328125 -3.195312 3.203125 -3.148438 3.144531 -3.074219 C 3.085938 -3.003906 3.054688 -2.835938 3.054688 -2.574219 L 3.054688 -1.273438 C 3.054688 -0.925781 3 -0.65625 2.894531 -0.464844 C 2.699219 -0.109375 2.328125 0.0703125 1.78125 0.0703125 C 1.242188 0.0703125 0.875 -0.105469 0.679688 -0.457031 C 0.574219 -0.644531 0.519531 -0.894531 0.519531 -1.203125 L 0.519531 -2.765625 C 0.519531 -2.949219 0.492188 -3.066406 0.4375 -3.117188 C 0.378906 -3.167969 0.257812 -3.199219 0.0703125 -3.214844 L 0.0703125 -3.308594 Z "/>
</g>
</g>
</defs>
<g fill="rgb(96.862745%, 85.098039%, 43.529412%)" fill-opacity="1">
<use xlink:href="#glyph-0-0" x="30" y="23.75"/>
<use xlink:href="#glyph-0-1" x="33" y="23.75"/>
<use xlink:href="#glyph-0-2" x="35" y="23.75"/>
<use xlink:href="#glyph-0-3" x="38" y="23.75"/>
</g>
</svg>
